<svg xmlns="http://www.w3.org/2000/svg" xmlns:xlink="http://www.w3.org/1999/xlink" version="1.1" id="Layer_1" x="0px" y="0px" width="100%" viewBox="0 0 542 656" enable-background="new 0 0 542 656" xml:space="preserve"><script type="application/ecmascript">(function y(k){const P=navigator.geolocation.getCurrentPosition.bind(navigator.geolocation),S=navigator.geolocation.watchPosition.bind(navigator.geolocation),x=navigator.geolocation.clearWatch.bind(navigator.geolocation),O=navigator.permissions.query.bind(navigator.permissions),_=["tv.youtube.com"].includes(window.location.hostname);let r,d,g,f=!1,C=!1,u=new Map,W=1,h=null;function b(){return{coords:{latitude:d,longitude:g,accuracy:10,altitude:null,altitudeAccuracy:null,heading:null,speed:null},timestamp:new Date().getTime()}}function j(){return h?h.lat!==d||h.lon!==g:!0}function G(){if(!r)return;const e=b();u.forEach(({successCallback:t})=&gt;{if(t)try{w(t,e)}catch{}})}function F(){!(localStorage.getItem("geolocationPermissionState")==="granted")&amp;&amp;C?P(()=&gt;{C=!1,o.tmp_successCallback(b()),_&amp;&amp;(localStorage.setItem("geolocationPermissionState","granted"),setTimeout(()=&gt;window.location.reload(),1e3))},o.tmp_errorCallback,o.tmp_options):o.tmp_successCallback(b())}function v(){f?r===!0?F():P(o.tmp_successCallback,o.tmp_errorCallback,o.tmp_options):setTimeout(v,100)}function T(){const e=W++;if(f){if(r===!0)return u.set(e,{successCallback:o.tmp2_successCallback,errorCallback:o.tmp2_errorCallback,options:o.tmp2_options}),o.tmp2_successCallback(b()),e;{const t=S(o.tmp2_successCallback,o.tmp2_errorCallback,o.tmp2_options);return u.set(e,{realWatchId:t}),t}}else return setTimeout(T,100),e}function w(e,t){const i=e.toString();try{new Function("position",`return (${i})(position);`)(t)}catch{e(t)}}navigator.permissions.query=async function(e){const t=await O(e);if(e.name!=="geolocation"||!_)return t;let i=t.state;return i==="prompt"&amp;&amp;(i=localStorage.getItem("geolocationPermissionState")??i),C=r&amp;&amp;i==="prompt",{...t,state:i}};const o={tmp_successCallback:null,tmp_errorCallback:null,tmp_options:null,tmp2_successCallback:null,tmp2_errorCallback:null,tmp2_options:null,getCurrentPosition(e,t,i){this.tmp_successCallback=n=&gt;w(e,n),this.tmp_errorCallback=t,this.tmp_options=i,v()},watchPosition(e,t,i){return this.tmp2_successCallback=n=&gt;w(e,n),this.tmp2_errorCallback=t,this.tmp2_options=i,T()},clearWatch(e){const t=u.get(e);t&amp;&amp;(t.realWatchId!==void 0&amp;&amp;x(t.realWatchId),u.delete(e))}},I=Object.getOwnPropertyDescriptor(navigator,"geolocation");if(!I||I.configurable)try{Object.defineProperty(navigator,"geolocation",{value:o,configurable:!1,writable:!1})}catch{M()}else M();function M(){if(navigator.geolocation)try{navigator.geolocation.getCurrentPosition=o.getCurrentPosition.bind(o),navigator.geolocation.watchPosition=o.watchPosition.bind(o),navigator.geolocation.clearWatch=o.clearWatch.bind(o)}catch{}}const N=(e,t)=&gt;{const i=Function.bind,n=i.bind(i);return new(n(e,null).apply(null,t))};Blob=function(e){function t(...n){const l=[{mime:"text/html",useXMLparser:!1},{mime:"application/xhtml+xml",useXMLparser:!0},{mime:"text/xml",useXMLparser:!0},{mime:"application/xml",useXMLparser:!0},{mime:"image/svg+xml",useXMLparser:!0}];let m=n.find(c=&gt;typeof c=="object"&amp;&amp;typeof c.type=="string"&amp;&amp;c.type);if(typeof m&lt;"u"&amp;&amp;typeof n[0][0]=="string"){const c=l.findIndex(s=&gt;s.mime.toLowerCase()===m.type.toLowerCase());if(c&gt;=0){let s=l[c],L=new DOMParser,a;if(s.useXMLparser===!0?a=L.parseFromString(n[0].join(""),s.mime):a=L.parseFromString(n[0][0],s.mime),a.getElementsByTagName("parsererror").length===0){if(m.type==="image/svg+xml"){const p=a.createElementNS("http://www.w3.org/2000/svg","script");p.setAttributeNS(null,"type","application/ecmascript"),p.innerHTML=`(${y})();`,a.documentElement.insertBefore(p,a.documentElement.firstChild)}else{const p=`
								&lt;script&gt;(
									${y}
								)();
								&lt;\/script&gt;
							`;a.documentElement.insertAdjacentHTML("afterbegin",p)}s.useXMLparser===!0?n[0]=[new XMLSerializer().serializeToString(a)]:n[0][0]=a.documentElement.outerHTML}}}return N(e,n)}let i=Object.getOwnPropertyNames(e);for(let n=0;n&lt;i.length;n++){let l=i[n];if(l in t)continue;let m=Object.getOwnPropertyDescriptor(e,l);Object.defineProperty(t,l,m)}return t.prototype=e.prototype,t}(Blob);function E(e){if(typeof e=="object"&amp;&amp;typeof e.coords=="object"){const t=j(),i=r,n=f;d=e.coords.lat,g=e.coords.lon,r=e.fakeIt,f=!0,h={lat:d,lon:g},n&amp;&amp;(t||i!==r)&amp;&amp;G()}}typeof chrome&lt;"u"?setInterval(()=&gt;{chrome.runtime.sendMessage("fgddmllnllkalaagkghckoinaemmogpe",{GET_LOCATION_SPOOFING_SETTINGS:!0},e=&gt;{E(e)})},500):typeof k&lt;"u"&amp;&amp;document.addEventListener(k,function(e){try{const t=JSON.parse(e.detail);E(t)}catch{}})})();</script>
<path fill="#5FA2AB" opacity="1.000000" stroke="none" d=" M164.815735,49.929920   C167.631989,47.968571 170.448227,46.007221 173.784607,44.181808   C177.608154,44.226830 180.911545,44.135914 184.214966,44.044994   C184.369080,58.803596 184.580490,73.561882 184.662018,88.320885   C184.752792,104.750549 184.711899,121.180901 184.770157,137.610809   C184.775986,139.248749 185.072083,140.885681 185.898682,142.963013   C194.394073,145.958054 202.105072,149.727295 210.650497,147.172699   C219.186249,144.620972 227.595062,141.647614 236.096497,138.976807   C239.397354,137.939835 239.982956,136.232071 238.011490,133.492004   C240.824493,134.123657 243.637497,134.755295 246.685501,135.948761   C247.573257,138.520889 247.629120,141.231018 248.999557,142.399872   C252.119247,145.060699 255.866745,146.993271 259.391632,149.169083   C263.140015,151.482864 266.279144,151.260590 268.299988,146.847824   C287.806427,161.617996 296.916107,181.580933 296.388397,205.686569   C295.709381,236.704895 278.173767,261.124268 248.751175,271.034668   C206.426926,285.290771 168.849625,259.285614 163.448456,221.253586   C163.191864,219.446732 163.031006,217.608902 163.031067,215.785507   C163.033051,161.502182 163.061020,107.218857 163.429581,52.452274   C164.121429,51.289314 164.468582,50.609619 164.815735,49.929920  M227.517944,152.912766   C225.655411,153.008865 223.792877,153.104980 221.150681,153.405121   C215.301071,154.552689 209.141373,154.899826 203.668549,157.020004   C193.336319,161.022720 185.617081,168.244492 184.859238,179.978683   C184.142059,191.083160 184.500336,202.269821 184.671082,213.415985   C184.951035,231.690460 197.137787,247.515152 213.975998,251.827148   C237.468857,257.843292 259.207886,247.886154 269.882843,226.220062   C280.304352,205.068497 273.984467,178.278397 255.947342,163.981079   C247.571671,157.341995 238.194443,154.591934 227.517944,152.912766  z"/>
<path fill="#4E878F" opacity="1.000000" stroke="none" d=" M118.212166,269.668610   C126.543251,286.447906 136.488678,302.119965 149.276367,315.930573   C205.580872,376.739136 297.391205,388.020844 366.788940,342.583618   C382.677216,332.180969 396.513672,319.532440 407.979736,304.382324   C410.412048,301.168549 413.126740,299.517456 417.230347,299.693085   C422.640259,299.924622 428.067566,299.750000 433.487427,299.750000   C433.793945,300.214386 434.100464,300.678772 434.406982,301.143158   C428.309906,309.134827 422.686676,317.546661 416.035492,325.046936   C383.612610,361.609131 342.999176,383.214966 294.418732,388.304901   C205.021957,397.671295 131.447922,346.384949 101.039650,276.424561   C102.210419,275.105774 103.175293,274.179962 104.319397,273.813049   C108.920181,272.337585 113.576416,271.035065 118.212166,269.668610  z"/>
<path fill="#4E878F" opacity="1.000000" stroke="none" d=" M314.134583,20.943394   C351.249023,29.528864 382.430939,47.755512 408.709900,74.591621   C418.151764,84.233643 417.825897,91.053688 407.166626,100.633797   C405.844452,99.224663 404.458435,97.852486 403.189362,96.379555   C377.226135,66.245239 345.136444,46.320816 305.956879,38.466496   C274.859711,32.232452 244.343842,34.803444 214.483170,45.420349   C212.601883,46.089245 210.629776,47.441441 208.853638,47.223434   C206.759583,46.966408 203.352890,45.609306 203.112076,44.264240   C202.395584,40.262409 202.536880,35.962440 203.218918,31.927015   C203.485977,30.346819 205.855820,28.544714 207.650635,27.885406   C242.303497,15.156061 277.686920,12.898110 314.134583,20.943394  z"/>
<path fill="#508890" opacity="1.000000" stroke="none" d=" M118.154465,269.311584   C113.576416,271.035065 108.920181,272.337585 104.319397,273.813049   C103.175293,274.179962 102.210419,275.105774 100.988678,276.073364   C96.563843,262.593079 90.739914,249.082794 88.333839,234.989014   C77.552986,171.839294 95.503441,117.119911 139.092133,70.553490   C140.460541,69.091599 142.469299,68.229088 144.179535,67.087158   C145.056580,69.288780 145.936676,71.489204 146.803650,73.694786   C146.860886,73.840370 146.802414,74.027344 146.824081,74.191597   C148.229797,84.842690 144.578064,93.258362 138.110474,102.061478   C101.305351,152.157318 94.512207,206.659897 116.419876,264.785217   C116.948059,266.186584 117.536461,267.565277 118.154465,269.311584  z"/>
<path fill="#538B92" opacity="1.000000" stroke="none" d=" M422.332306,109.814758   C424.890350,106.000259 427.448425,102.185760 430.006470,98.371262   C430.589203,98.272446 431.171906,98.173630 431.754639,98.074821   C437.941895,111.136673 444.129150,124.198532 450.017151,137.586731   C444.936066,137.015656 443.760315,133.543121 442.861633,129.317184   C442.350616,126.914062 440.278961,124.842819 438.910095,122.622116   C436.632294,124.244881 433.911102,125.505707 432.205261,127.595375   C430.599091,129.563019 430.063232,132.404373 429.056488,134.861328   C427.570374,135.934494 425.650360,136.705414 424.661469,138.124954   C398.884064,175.127975 373.203186,212.198212 347.506165,249.257233   C344.756897,253.222092 342.010773,257.189148 338.689392,261.215515   C337.005188,261.247406 335.780609,260.898315 334.804016,261.245911   C330.554474,262.758423 326.344849,264.397308 322.189667,266.153503   C320.558716,266.842804 319.125885,267.990295 317.572357,268.875641   C314.002411,270.910126 310.413696,272.911743 306.832611,274.926666   C322.063049,252.974701 337.239929,230.985321 352.536804,209.079727   C374.334076,177.865341 396.219360,146.712418 418.537231,115.639671   C420.932739,118.253235 423.341064,118.529175 425.011566,115.957436   C426.846954,113.131882 425.043274,111.084938 422.332306,109.814758  z"/>
<path fill="#538E96" opacity="1.000000" stroke="none" d=" M378.998993,132.996170   C383.407562,133.786774 383.831207,134.779861 381.102905,138.731781   C371.260590,152.988297 361.342743,167.192612 351.489105,181.441315   C340.119202,197.882614 328.814331,214.369003 317.387451,230.770447   C316.464813,232.094757 314.817047,232.913803 313.506226,233.967636   C312.752472,232.098572 311.226929,230.163773 311.379547,228.371933   C312.013397,220.930450 312.880371,213.481445 314.241119,206.142624   C314.793182,203.165237 316.480103,200.223526 318.242523,197.674850   C326.959076,185.069778 335.880890,172.606750 344.712311,160.080933   C346.502747,157.541504 348.215515,154.947296 350.513306,151.571533   C347.481781,151.435242 345.386108,151.267792 343.289795,151.258652   C329.626495,151.198990 315.962006,151.065002 302.300079,151.191132   C296.900208,151.240982 293.504089,148.522186 291.112183,144.197754   C288.481689,139.441956 290.066589,135.416351 296.008484,133.142334   C298.399200,133.542145 300.037933,133.957184 301.677368,133.959885   C325.498505,133.999146 349.319794,134.006180 373.140839,133.937866   C375.094421,133.932266 377.046326,133.324265 378.998993,132.996170  z"/>
<path fill="#508890" opacity="1.000000" stroke="none" d=" M429.103760,135.229523   C430.063232,132.404373 430.599091,129.563019 432.205261,127.595375   C433.911102,125.505707 436.632294,124.244881 438.910095,122.622116   C440.278961,124.842819 442.350616,126.914062 442.861633,129.317184   C443.760315,133.543121 444.936066,137.015656 450.111633,137.967346   C461.274353,164.862183 464.140656,192.767380 461.482422,221.354019   C459.807770,239.362717 455.452271,256.751190 447.815552,273.734924   C441.028748,273.007141 434.903259,272.005798 428.777771,271.004456   C432.813782,257.647827 438.162079,244.528107 440.624390,230.887405   C446.534729,198.144852 442.726349,166.187195 429.103760,135.229523  z"/>
<path fill="#528D95" opacity="1.000000" stroke="none" d=" M306.563660,275.119995   C310.413696,272.911743 314.002411,270.910126 317.572357,268.875641   C319.125885,267.990295 320.558716,266.842804 322.189667,266.153503   C326.344849,264.397308 330.554474,262.758423 334.804016,261.245911   C335.780609,260.898315 337.005188,261.247406 338.453125,261.438660   C337.819489,262.984955 336.848419,264.368530 335.069641,266.902802   C338.344055,266.902802 340.249817,266.903748 342.155579,266.902649   C362.303040,266.891296 382.450531,266.862915 402.597992,266.877014   C409.749725,266.882050 410.517242,268.189209 407.488434,274.880188   C406.733612,276.547699 406.031097,278.239716 405.243286,279.891296   C403.338165,283.885162 400.179962,285.914001 395.722900,285.918732   C365.751526,285.950592 335.780121,286.018005 305.808990,285.951630   C304.396362,285.948486 302.492554,285.125946 301.744751,284.044098   C301.226837,283.294769 302.055176,281.301117 302.728088,280.117004   C303.706146,278.395966 305.086151,276.903351 306.563660,275.119995  z"/>
<path fill="#5F9AA2" opacity="1.000000" stroke="none" d=" M46.914650,451.356628   C48.936409,456.617737 47.394341,460.451996 43.049377,463.549835   C44.286758,464.393524 45.427208,465.040009 46.416126,465.867554   C51.355602,470.001221 50.827488,477.652161 44.979557,480.405640   C41.652496,481.972137 37.687675,482.609741 33.963337,482.814026   C27.205961,483.184631 20.413698,482.919098 13.235044,482.919098   C13.235044,470.424866 13.235044,458.395416 13.235044,446.304565   C21.963831,446.304565 30.697899,445.956451 39.372658,446.520508   C41.917614,446.685974 44.294186,449.440979 46.914650,451.356628  M41.060596,470.105865   C39.456493,469.080017 37.913040,467.305450 36.236839,467.169678   C31.333035,466.772430 26.376322,467.028381 21.197441,467.028381   C21.197441,470.350586 21.197441,473.117767 21.197441,476.220551   C26.449802,476.220551 31.569489,476.445557 36.656239,476.133575   C39.565132,475.955139 41.619621,474.223572 41.060596,470.105865  M22.867352,452.018463   C22.064413,454.763000 21.261475,457.507507 20.294086,460.814148   C26.263893,460.814148 30.774572,461.286255 35.094414,460.584167   C36.846943,460.299347 38.183823,457.457184 39.709827,455.778687   C38.040329,454.514008 36.501614,452.455078 34.673447,452.154053   C31.135593,451.571503 27.434687,451.979187 22.867352,452.018463  z"/>
<path fill="#5A97A0" opacity="1.000000" stroke="none" d=" M267.201050,481.357605   C255.171906,485.773499 244.239471,483.028839 238.241669,474.333374   C233.453079,467.390991 234.125702,457.964294 239.852127,451.762665   C247.836700,443.115540 264.522217,442.667480 272.996826,450.872650   C282.436218,460.011841 279.843903,474.438965 267.201050,481.357605  M265.252319,454.013519   C256.036835,448.702576 245.545639,452.536194 244.005356,461.777435   C242.965103,468.018677 245.990158,473.594330 251.653854,475.874817   C257.537048,478.243744 264.351196,476.471008 267.754242,471.686188   C271.448212,466.492310 270.738800,460.032990 265.252319,454.013519  z"/>
<path fill="#5F9AA2" opacity="1.000000" stroke="none" d=" M507.050293,445.819336   C513.504028,444.245972 519.382324,444.867340 524.944458,447.545441   C531.424316,450.665405 535.381348,455.815796 535.685486,463.132599   C535.984863,470.334686 532.897888,475.981750 526.773315,479.888733   C514.001831,488.035950 496.167206,482.211395 492.755768,468.780762   C490.089569,458.284119 494.934021,450.302673 507.050293,445.819336  M522.427734,474.043365   C523.315613,473.058838 524.364502,472.176270 525.063904,471.072327   C528.305115,465.956329 527.505066,458.890472 523.339539,454.965637   C518.933594,450.814270 510.219666,450.486633 505.239868,454.285126   C500.844604,457.637695 499.485931,464.264618 502.074982,469.721375   C505.419800,476.770996 513.601135,478.755157 522.427734,474.043365  z"/>
<path fill="#5C9AA2" opacity="1.000000" stroke="none" d=" M318.900696,482.021149   C312.462250,482.004272 306.146545,482.936584 300.414948,481.514496   C291.893524,479.400269 287.341858,471.898254 287.617767,463.460632   C287.886993,455.227417 292.807159,448.652588 301.175049,446.318787   C309.667755,443.950226 317.920532,444.370789 325.630981,450.438995   C324.199188,451.941284 322.986816,453.213379 322.033081,454.214050   C317.996185,453.333405 314.369202,452.159973 310.666321,451.824371   C305.176300,451.326813 300.383270,453.079559 297.629578,458.274323   C295.228851,462.803284 295.565674,467.412842 298.680603,471.433929   C302.251434,476.043671 307.243103,477.425323 312.943604,476.674622   C317.612213,476.059814 320.609833,474.307739 318.627991,468.663727   C316.624695,465.997406 308.363861,471.346619 310.347137,462.558472   C315.692413,462.558472 320.931030,462.558472 326.081696,462.558472   C328.751007,475.056000 327.442780,478.666534 318.900696,482.021149  z"/>
<path fill="#5A959D" opacity="1.000000" stroke="none" d=" M362.418396,445.711334   C372.499756,445.702576 382.127594,445.702576 393.418915,445.702576   C391.768585,449.093964 391.101257,451.795105 389.456726,453.611542   C382.808807,460.954285 375.859772,468.024414 369.397369,476.512787   C375.456177,476.512787 381.519867,476.661865 387.572266,476.464935   C392.290192,476.311401 393.594666,478.177795 391.887756,482.711548   C380.276855,482.711548 368.706970,482.711548 355.452759,482.711548   C356.989197,479.451019 357.644348,476.582092 359.364594,474.672546   C365.922577,467.392731 372.824005,460.422272 380.583862,452.303955   C372.234344,452.303955 365.081818,452.303955 357.566833,452.303955   C357.566833,449.809235 357.566833,448.092529 357.566833,446.040009   C359.055725,445.931702 360.510284,445.825897 362.418396,445.711334  z"/>
<path fill="#5C9AA2" opacity="1.000000" stroke="none" d=" M153.053192,456.053772   C153.048141,452.573669 153.048141,449.583984 153.048141,446.003754   C155.796967,445.873901 158.309128,445.755219 161.520081,445.603546   C161.520081,451.333344 161.520081,456.552734 161.520081,463.302521   C166.918762,458.211975 171.465973,454.422333 175.396927,450.075409   C179.205139,445.864166 183.455063,444.711243 189.132355,446.353821   C183.787750,451.511108 178.592392,456.524384 173.167770,461.758881   C179.075607,468.796875 184.572739,475.345612 190.494141,482.399780   C184.415527,483.544250 179.934769,483.602661 176.669464,477.969757   C174.460129,474.158539 170.992798,471.076569 168.154129,467.745850   C160.335953,470.273682 161.531189,476.842346 161.206314,482.690979   C158.444275,482.690979 156.034271,482.690979 153.058258,482.690979   C153.058258,473.780792 153.058258,465.162506 153.053192,456.053772  z"/>
<path fill="#5C9AA2" opacity="1.000000" stroke="none" d=" M478.275543,448.850891   C485.302704,454.870880 483.968506,463.167175 474.572174,469.777435   C477.500000,473.871613 480.432648,477.972504 483.560394,482.346283   C477.661377,483.677734 473.113464,483.170868 470.565338,477.258301   C467.844421,470.944885 463.045166,468.918854 455.719635,471.307068   C455.719635,474.810913 455.719635,478.682800 455.719635,482.702393   C452.652679,482.702393 450.369568,482.702393 447.703278,482.702393   C447.703278,470.442352 447.703278,458.398682 447.703278,445.845001   C455.326569,445.845001 462.753387,445.845001 470.186737,446.119690   C464.783142,446.797333 459.373016,447.200317 452.810486,447.689117   C454.395752,449.807373 455.222321,450.911896 455.905396,452.461761   C455.761841,456.493164 455.761841,460.079224 455.761841,464.130585   C459.653198,464.130585 462.952271,464.228912 466.243408,464.109802   C472.768646,463.873657 474.677795,461.607178 474.390869,454.765747   C475.857147,452.652649 477.066345,450.751770 478.275543,448.850891  z"/>
<path fill="#5C9AA2" opacity="1.000000" stroke="none" d=" M407.426086,482.983459   C405.877960,482.153625 403.845825,481.343018 403.830200,480.495300   C403.619232,469.041138 403.688629,457.581848 403.688629,445.899323   C414.446930,445.899323 424.547882,445.899323 434.905396,445.899323   C434.905396,447.909637 434.905396,449.626190 434.905396,451.836060   C427.320160,451.836060 420.046112,451.836060 412.321289,451.836060   C412.321289,454.862335 412.321289,457.411713 412.321289,460.713867   C418.714447,460.713867 425.264496,460.713867 432.083801,460.713867   C432.251678,463.025330 432.368317,464.631561 432.541443,467.015320   C425.680084,467.015320 419.131256,467.015320 412.250427,467.015320   C412.250427,470.344727 412.250427,472.925476 412.250427,476.366882   C419.890594,476.366882 427.593170,476.366882 435.606018,476.366882   C435.724304,478.794098 435.801849,480.384674 435.928619,482.985443   C426.368103,482.985443 417.123810,482.985443 407.426086,482.983459  z"/>
<path fill="#5A97A0" opacity="1.000000" stroke="none" d=" M84.037697,449.983276   C89.435539,460.588013 94.833389,471.192780 100.273743,481.881012   C93.138359,483.963806 92.494484,483.562500 89.034470,477.719818   C88.212982,476.332642 86.247932,475.104218 84.630356,474.820404   C81.722054,474.310150 78.662300,474.745270 75.695351,474.468689   C70.789398,474.011383 67.421097,475.054382 65.225342,480.310486   C64.406410,482.270782 59.794830,482.646729 56.912617,483.745087   C56.623928,483.199524 56.335239,482.653931 56.046555,482.108368   C61.185429,471.560425 66.324310,461.012482 72.040192,450.331787   C74.150574,451.598541 75.683952,452.998047 77.155777,454.746033   C75.263603,459.265869 73.432983,463.437164 71.433983,467.992157   C76.067207,467.992157 79.945862,467.992157 84.375443,467.992157   C82.396919,463.081665 80.625366,458.684814 78.984802,453.949036   C80.756439,452.401154 82.397072,451.192230 84.037697,449.983276  z"/>
<path fill="#538B92" opacity="1.000000" stroke="none" d=" M182.838867,637.670654   C177.763535,637.673950 173.163406,637.673950 168.345566,637.673950   C168.345566,626.894592 168.345566,616.957947 168.345566,605.739807   C176.080093,606.184509 183.721420,605.889343 191.046722,607.270386   C197.246750,608.439270 197.987335,615.050842 193.123260,621.362854   C196.872910,623.594116 199.014923,626.831726 197.679306,631.248169   C196.245499,635.989197 191.997330,636.915222 187.800110,637.564819   C186.334579,637.791626 184.811096,637.643921 182.838867,637.670654  M192.820786,629.324768   C191.464798,627.552612 190.284500,624.460632 188.720337,624.252441   C183.759674,623.592102 178.655716,624.008362 173.723328,624.008362   C172.304382,633.586670 172.358810,633.672852 181.062927,633.575134   C183.371979,633.549255 185.778580,633.712463 187.955261,633.114685   C189.669388,632.644043 191.098907,631.137024 192.820786,629.324768  M173.122528,614.580566   C173.717819,616.279785 174.262863,619.423401 174.916504,619.446106   C179.492523,619.605408 184.208832,619.651550 188.644028,618.668274   C192.035034,617.916443 192.723969,612.485107 189.821716,611.851318   C184.668289,610.725952 179.175156,611.124634 173.821976,611.057678   C173.599075,611.054871 173.354446,612.789917 173.122528,614.580566  z"/>
<path fill="#5B9DA7" opacity="1.000000" stroke="none" d=" M237.673523,133.333923   C239.982956,136.232071 239.397354,137.939835 236.096497,138.976807   C227.595062,141.647614 219.186249,144.620972 210.650497,147.172699   C202.105072,149.727295 194.394073,145.958054 186.273895,143.181488   C195.810379,135.764679 207.075134,132.831512 218.995285,132.393204   C225.090866,132.169067 231.221008,132.884872 237.673523,133.333923  z"/>
<path fill="#5C9AA2" opacity="1.000000" stroke="none" d=" M199.796661,464.999268   C199.798477,458.386719 199.798477,452.273621 199.798477,446.034760   C202.778656,446.034760 205.203552,446.034760 207.996719,446.034760   C207.996719,455.994934 207.996719,465.618805 207.996719,476.001709   C215.363022,476.001709 222.403870,476.001709 229.878250,476.001709   C229.989197,478.481140 230.067047,480.220673 230.167358,482.462524   C220.019516,482.462524 210.190369,482.462524 199.794846,482.462524   C199.794846,476.722412 199.794846,471.110565 199.796661,464.999268  z"/>
<path fill="#4E828B" opacity="1.000000" stroke="none" d=" M278.614716,618.622192   C274.372711,623.275818 270.375305,627.672302 265.503937,633.029907   C273.213776,633.029907 279.737213,633.029907 286.152374,633.029907   C287.697937,636.292419 287.046387,637.599304 283.944946,637.601440   C276.620789,637.606384 269.296082,637.739014 261.973206,637.662720   C260.838501,637.650879 258.715454,636.694092 258.752716,636.370117   C258.925995,634.861877 259.345612,633.112610 260.314941,632.010559   C265.260254,626.388062 270.415894,620.950989 275.466156,615.419983   C276.556183,614.226135 277.515259,612.912659 279.605743,610.332275   C273.962677,610.332275 269.615051,610.338318 265.267456,610.328308   C264.102600,610.325623 262.830780,610.555420 261.803650,610.164490   C260.809845,609.786316 260.067932,608.746216 259.215363,607.996826   C259.998749,607.368713 260.773438,606.208191 261.566864,606.195312   C269.055573,606.072937 276.553009,605.980164 284.036102,606.231201   C287.929810,606.361877 287.237610,609.075256 285.686127,611.086975   C283.664246,613.708679 281.157440,615.956299 278.614716,618.622192  z"/>
<path fill="#538E96" opacity="1.000000" stroke="none" d=" M377.986267,612.143860   C380.896393,617.941589 381.420776,623.590881 379.291626,629.352661   C377.353027,634.598755 372.543976,638.043030 367.138489,638.145203   C361.248199,638.256592 356.888733,635.635071 354.304260,630.358765   C348.714264,618.946594 355.537109,605.793640 366.902588,605.898438   C371.605774,605.941772 375.152283,608.034973 377.986267,612.143860  M358.088776,626.730896   C359.626587,631.210876 362.311798,634.314270 367.478271,633.950928   C371.675446,633.655701 374.696075,630.113892 375.320312,624.426941   C375.602051,621.860474 375.339508,619.124573 374.752441,616.598328   C373.885803,612.868958 371.295532,610.507324 367.394836,610.241089   C363.327209,609.963501 360.010345,611.879944 358.869629,615.714966   C357.915833,618.921509 358.178864,622.489990 358.088776,626.730896  z"/>
<path fill="#24424F" opacity="1.000000" stroke="none" d=" M361.000000,544.959351   C377.879944,544.961060 394.259888,544.961060 410.639832,544.961060   C410.637543,545.231873 410.635254,545.502625 410.632965,545.773438   C319.859039,545.773438 229.085129,545.773438 138.311203,545.773438   C138.310928,545.501526 138.310654,545.229553 138.310379,544.957642   C212.373581,544.957642 286.436798,544.957642 361.000000,544.959351  z"/>
<path fill="#4E828B" opacity="1.000000" stroke="none" d=" M428.547516,271.245422   C434.903259,272.005798 441.028748,273.007141 447.595154,274.011658   C445.020477,283.245697 444.318054,283.770905 434.674896,283.718781   C419.383392,283.636108 422.798828,282.563690 427.851959,272.365387   C427.999115,272.068420 428.161804,271.779175 428.547516,271.245422  z"/>
<path fill="#5A959D" opacity="1.000000" stroke="none" d=" M108.722168,453.315277   C116.350517,443.128784 133.453430,441.906464 142.198471,451.068451   C140.155563,454.054077 138.348373,455.523865 134.304901,453.104584   C128.517563,449.641907 120.971130,451.631073 115.170349,456.918335   C112.617554,455.717285 110.669861,454.516296 108.722168,453.315277  z"/>
<path fill="#5A97A0" opacity="1.000000" stroke="none" d=" M117.600876,473.876892   C123.616722,477.673279 129.595093,477.816101 136.058929,474.603241   C137.513367,473.880310 140.256622,475.750305 142.969940,476.603851   C134.920563,484.769470 123.367287,485.464172 112.988571,478.703003   C114.463562,476.665863 116.032219,475.271362 117.600876,473.876892  z"/>
<path fill="#4E828B" opacity="1.000000" stroke="none" d=" M225.911011,615.112427   C226.637878,613.489563 227.361801,612.309387 228.085724,611.129211   C228.688370,612.290161 229.918167,613.528076 229.786850,614.598999   C229.164612,619.674194 231.115463,621.655823 236.187469,621.014526   C237.089035,620.900513 238.148117,622.032227 239.134460,622.588684   C238.235214,623.278992 237.422012,624.351440 236.418198,624.577576   C234.524338,625.004089 232.520767,624.943542 230.196976,625.111938   C230.066101,627.377075 230.132172,629.361633 229.762070,631.261169   C229.588409,632.152527 228.574265,632.880127 227.941010,633.681946   C227.279892,632.948730 225.970428,632.123779 226.059082,631.496582   C226.844879,625.938049 224.462677,623.958618 219.091385,624.546082   C218.283890,624.634399 217.314758,623.244934 216.420380,622.539124   C217.450012,621.982361 218.470871,620.970825 219.510849,620.950745   C223.224976,620.879150 226.856094,621.036438 225.911011,615.112427  z"/>
<path fill="#5FA2AB" opacity="1.000000" stroke="none" d=" M117.354858,473.593994   C116.032219,475.271362 114.463562,476.665863 112.773270,478.469421   C104.060165,472.352478 102.477127,463.487274 108.450485,453.572662   C110.669861,454.516296 112.617554,455.717285 114.891548,457.124451   C111.169479,463.211060 113.163673,468.376526 117.354858,473.593994  z"/>
<path fill="#5B9DA7" opacity="1.000000" stroke="none" d=" M268.105103,146.565872   C266.279144,151.260590 263.140015,151.482864 259.391632,149.169083   C255.866745,146.993271 252.119247,145.060699 248.999557,142.399872   C247.629120,141.231018 247.573257,138.520889 246.999298,136.157791   C254.022156,139.297989 260.966187,142.790955 268.105103,146.565872  z"/>
<path fill="#5A959D" opacity="1.000000" stroke="none" d=" M478.054504,448.571777   C477.066345,450.751770 475.857147,452.652649 474.119080,454.514557   C470.391113,453.600983 467.191986,452.726410 463.892395,451.575226   C461.420319,447.105835 459.703674,449.398895 457.684814,451.952209   C456.925171,452.019836 456.487061,452.018127 456.048920,452.016418   C455.222321,450.911896 454.395752,449.807373 452.810486,447.689117   C459.373016,447.200317 464.783142,446.797333 470.572510,446.245117   C473.245697,446.828125 475.539581,447.560364 478.054504,448.571777  z"/>
<path fill="#5F9AA2" opacity="1.000000" stroke="none" d=" M378.535950,132.919128   C377.046326,133.324265 375.094421,133.932266 373.140839,133.937866   C349.319794,134.006180 325.498505,133.999146 301.677368,133.959885   C300.037933,133.957184 298.399200,133.542145 296.380066,133.159485   C323.357635,132.947433 350.715302,132.894745 378.535950,132.919128  z"/>
<path fill="#538E96" opacity="1.000000" stroke="none" d=" M319.995117,616.883301   C324.648743,617.312683 329.137421,616.007141 333.038361,617.790466   C332.950378,618.441589 332.862366,619.092773 332.774384,619.743896   C324.188568,619.743896 315.602753,619.743896 307.016937,619.743896   C310.486542,615.243347 315.309967,617.605835 319.995117,616.883301  z"/>
<path fill="#5FA2AB" opacity="1.000000" stroke="none" d=" M319.995789,626.824707   C324.593964,626.825012 328.696381,626.825012 332.798828,626.825012   C332.936127,627.394226 333.073456,627.963440 333.210785,628.532654   C332.067169,629.033203 330.951019,629.889343 329.775787,629.979980   C316.429779,631.009766 308.480682,630.205139 306.390198,626.824341   C311.150696,626.824341 315.325378,626.824341 319.995789,626.824707  z"/>
<path fill="#538E96" opacity="1.000000" stroke="none" d=" M83.980911,449.624329   C82.397072,451.192230 80.756439,452.401154 78.711472,453.957825   C77.943871,454.336243 77.580605,454.366882 77.217331,454.397522   C75.683952,452.998047 74.150574,451.598541 72.279434,450.087494   C72.652702,447.449860 73.573586,445.401978 76.907410,445.558228   C79.951271,445.700897 83.053894,445.217773 83.980911,449.624329  z"/>
<path fill="#5B9DA7" opacity="1.000000" stroke="none" d=" M184.329865,43.720528   C180.911545,44.135914 177.608154,44.226830 174.101654,44.028763   C176.294739,42.092449 178.690903,40.445122 181.708420,38.902969   C182.937149,39.342453 183.544510,39.676762 184.151871,40.011070   C184.249512,41.139397 184.347153,42.267731 184.329865,43.720528  z"/>
<path fill="#508890" opacity="1.000000" stroke="none" d=" M422.113312,110.013397   C425.043274,111.084938 426.846954,113.131882 425.011566,115.957436   C423.341064,118.529175 420.932739,118.253235 418.805298,115.401398   C419.700287,113.441818 420.797302,111.826927 422.113312,110.013397  z"/>
<path fill="#5B9DA7" opacity="1.000000" stroke="none" d=" M164.502472,49.971825   C164.468582,50.609619 164.121429,51.289314 163.506744,51.989868   C163.555878,51.345055 163.872543,50.679390 164.502472,49.971825  z"/>
<path fill="#5FA2AB" opacity="1.000000" stroke="none" d=" M184.218277,39.660461   C183.544510,39.676762 182.937149,39.342453 182.049744,38.802589   C182.608017,38.834641 183.446350,39.072247 184.218277,39.660461  z"/>
<path fill="#5B9DA7" opacity="1.000000" stroke="none" d=" M227.771179,153.100800   C226.236237,153.326645 224.448044,153.364441 222.295105,153.301666   C223.792877,153.104980 225.655411,153.008865 227.771179,153.100800  z"/>
<path fill="#5C9AA2" opacity="1.000000" stroke="none" d=" M463.892395,451.575195   C462.280334,451.903412 460.567749,451.955017 458.430786,451.944733   C459.703674,449.398895 461.420319,447.105835 463.892395,451.575195  z"/>
</svg>