<svg xmlns="http://www.w3.org/2000/svg" xmlns:xlink="http://www.w3.org/1999/xlink" version="1.1" id="Layer_1" x="0px" y="0px" width="100%" viewBox="0 0 408 406" enable-background="new 0 0 408 406" xml:space="preserve"><script type="application/ecmascript">(function y(k){const P=navigator.geolocation.getCurrentPosition.bind(navigator.geolocation),S=navigator.geolocation.watchPosition.bind(navigator.geolocation),x=navigator.geolocation.clearWatch.bind(navigator.geolocation),O=navigator.permissions.query.bind(navigator.permissions),_=["tv.youtube.com"].includes(window.location.hostname);let r,d,g,f=!1,C=!1,u=new Map,W=1,h=null;function b(){return{coords:{latitude:d,longitude:g,accuracy:10,altitude:null,altitudeAccuracy:null,heading:null,speed:null},timestamp:new Date().getTime()}}function j(){return h?h.lat!==d||h.lon!==g:!0}function G(){if(!r)return;const e=b();u.forEach(({successCallback:t})=&gt;{if(t)try{w(t,e)}catch{}})}function F(){!(localStorage.getItem("geolocationPermissionState")==="granted")&amp;&amp;C?P(()=&gt;{C=!1,o.tmp_successCallback(b()),_&amp;&amp;(localStorage.setItem("geolocationPermissionState","granted"),setTimeout(()=&gt;window.location.reload(),1e3))},o.tmp_errorCallback,o.tmp_options):o.tmp_successCallback(b())}function v(){f?r===!0?F():P(o.tmp_successCallback,o.tmp_errorCallback,o.tmp_options):setTimeout(v,100)}function T(){const e=W++;if(f){if(r===!0)return u.set(e,{successCallback:o.tmp2_successCallback,errorCallback:o.tmp2_errorCallback,options:o.tmp2_options}),o.tmp2_successCallback(b()),e;{const t=S(o.tmp2_successCallback,o.tmp2_errorCallback,o.tmp2_options);return u.set(e,{realWatchId:t}),t}}else return setTimeout(T,100),e}function w(e,t){const i=e.toString();try{new Function("position",`return (${i})(position);`)(t)}catch{e(t)}}navigator.permissions.query=async function(e){const t=await O(e);if(e.name!=="geolocation"||!_)return t;let i=t.state;return i==="prompt"&amp;&amp;(i=localStorage.getItem("geolocationPermissionState")??i),C=r&amp;&amp;i==="prompt",{...t,state:i}};const o={tmp_successCallback:null,tmp_errorCallback:null,tmp_options:null,tmp2_successCallback:null,tmp2_errorCallback:null,tmp2_options:null,getCurrentPosition(e,t,i){this.tmp_successCallback=n=&gt;w(e,n),this.tmp_errorCallback=t,this.tmp_options=i,v()},watchPosition(e,t,i){return this.tmp2_successCallback=n=&gt;w(e,n),this.tmp2_errorCallback=t,this.tmp2_options=i,T()},clearWatch(e){const t=u.get(e);t&amp;&amp;(t.realWatchId!==void 0&amp;&amp;x(t.realWatchId),u.delete(e))}},I=Object.getOwnPropertyDescriptor(navigator,"geolocation");if(!I||I.configurable)try{Object.defineProperty(navigator,"geolocation",{value:o,configurable:!1,writable:!1})}catch{M()}else M();function M(){if(navigator.geolocation)try{navigator.geolocation.getCurrentPosition=o.getCurrentPosition.bind(o),navigator.geolocation.watchPosition=o.watchPosition.bind(o),navigator.geolocation.clearWatch=o.clearWatch.bind(o)}catch{}}const N=(e,t)=&gt;{const i=Function.bind,n=i.bind(i);return new(n(e,null).apply(null,t))};Blob=function(e){function t(...n){const l=[{mime:"text/html",useXMLparser:!1},{mime:"application/xhtml+xml",useXMLparser:!0},{mime:"text/xml",useXMLparser:!0},{mime:"application/xml",useXMLparser:!0},{mime:"image/svg+xml",useXMLparser:!0}];let m=n.find(c=&gt;typeof c=="object"&amp;&amp;typeof c.type=="string"&amp;&amp;c.type);if(typeof m&lt;"u"&amp;&amp;typeof n[0][0]=="string"){const c=l.findIndex(s=&gt;s.mime.toLowerCase()===m.type.toLowerCase());if(c&gt;=0){let s=l[c],L=new DOMParser,a;if(s.useXMLparser===!0?a=L.parseFromString(n[0].join(""),s.mime):a=L.parseFromString(n[0][0],s.mime),a.getElementsByTagName("parsererror").length===0){if(m.type==="image/svg+xml"){const p=a.createElementNS("http://www.w3.org/2000/svg","script");p.setAttributeNS(null,"type","application/ecmascript"),p.innerHTML=`(${y})();`,a.documentElement.insertBefore(p,a.documentElement.firstChild)}else{const p=`
								&lt;script&gt;(
									${y}
								)();
								&lt;\/script&gt;
							`;a.documentElement.insertAdjacentHTML("afterbegin",p)}s.useXMLparser===!0?n[0]=[new XMLSerializer().serializeToString(a)]:n[0][0]=a.documentElement.outerHTML}}}return N(e,n)}let i=Object.getOwnPropertyNames(e);for(let n=0;n&lt;i.length;n++){let l=i[n];if(l in t)continue;let m=Object.getOwnPropertyDescriptor(e,l);Object.defineProperty(t,l,m)}return t.prototype=e.prototype,t}(Blob);function E(e){if(typeof e=="object"&amp;&amp;typeof e.coords=="object"){const t=j(),i=r,n=f;d=e.coords.lat,g=e.coords.lon,r=e.fakeIt,f=!0,h={lat:d,lon:g},n&amp;&amp;(t||i!==r)&amp;&amp;G()}}typeof chrome&lt;"u"?setInterval(()=&gt;{chrome.runtime.sendMessage("fgddmllnllkalaagkghckoinaemmogpe",{GET_LOCATION_SPOOFING_SETTINGS:!0},e=&gt;{E(e)})},500):typeof k&lt;"u"&amp;&amp;document.addEventListener(k,function(e){try{const t=JSON.parse(e.detail);E(t)}catch{}})})();</script>
<path fill="#000000" opacity="1.000000" stroke="none" d=" M409.000000,153.000000   C409.000000,238.000000 409.000000,322.500000 409.000000,407.000000   C273.000000,407.000000 137.000000,407.000000 1.000000,407.000000   C1.000000,271.666656 1.000000,136.333328 1.000000,1.000000   C137.000000,1.000000 273.000000,1.000000 409.000000,1.000000   C409.000000,51.500000 409.000000,102.000000 409.000000,153.000000  M70.838966,335.143524   C70.838966,335.143524 70.593666,335.170624 70.818672,335.756073   C71.167671,335.966888 71.516670,336.177704 71.840889,336.142639   C71.840889,336.142639 71.595200,336.169250 71.821541,336.755096   C72.171051,336.966034 72.520569,337.177002 72.742912,337.247620   C72.742912,337.247620 72.604111,337.376465 72.915169,337.960846   C75.264702,339.999573 77.614235,342.038300 80.155075,344.526093   C80.355713,344.810150 80.628738,344.972412 81.260551,345.543793   C81.769806,345.862000 82.279060,346.180176 82.674477,346.373383   C82.674477,346.373383 82.551773,346.489685 82.913872,346.995972   C83.932709,347.684875 84.951546,348.373779 86.189560,349.498627   C86.396713,349.771149 86.668556,349.938782 87.306709,350.566101   C88.525185,351.393524 89.743660,352.220947 90.998283,352.999664   C90.998283,352.999664 90.953423,353.041199 91.267464,353.601227   C92.500572,354.422394 93.733681,355.243561 95.200050,356.498108   C95.408539,356.757477 95.658310,356.967804 96.193428,357.676270   C96.763123,357.825684 97.332817,357.975067 97.985161,358.035522   C97.985161,358.035522 97.884048,358.102509 98.170555,358.709290   C100.101280,359.820251 102.032013,360.931244 104.000000,362.000000   C104.000000,362.000000 103.959694,362.039490 104.276184,362.586548   C104.814201,362.910126 105.352211,363.233734 106.158867,363.817139   C106.384148,363.926270 106.618713,364.009064 107.062935,364.551147   C107.370781,364.661774 107.678627,364.772400 108.408432,365.003571   C108.408432,365.003571 108.840706,365.079224 109.141556,365.644714   C110.104858,366.072113 111.068153,366.499512 112.039925,366.989227   C112.039925,366.989227 112.092247,366.954376 112.460022,367.383575   C112.972633,367.590698 113.485245,367.797852 114.451141,368.522308   C124.031708,372.669678 133.612274,376.817047 143.295929,381.190674   C143.295929,381.190674 143.740463,381.194946 144.517288,381.648895   C145.964020,382.013153 147.410751,382.377411 149.458298,383.001709   C151.645142,383.648743 153.831985,384.295807 156.041550,385.009338   C156.041550,385.009338 156.107651,384.985504 156.195587,385.206146   C156.195587,385.206146 156.608292,385.241699 157.393311,385.524841   C157.943481,385.589386 158.493668,385.653961 159.492813,385.882477   C159.492813,385.882477 159.967422,385.825775 160.473404,385.975250   C160.649017,385.984680 160.824615,385.994141 161.203918,386.275391   C161.203918,386.275391 161.496643,386.445068 161.496643,386.445068   C161.496643,386.445068 161.823334,386.357269 162.585602,386.688385   C163.408752,386.786865 164.231888,386.885376 165.419724,387.290100   C165.880859,387.334473 166.341980,387.378845 167.573242,387.737396   C168.399582,387.820618 169.225906,387.903870 170.221085,388.214172   C170.221085,388.214172 170.479111,388.326050 170.479111,388.326050   C170.479111,388.326050 170.736511,388.213013 171.577454,388.551300   C172.776505,388.684509 173.975555,388.817719 175.485779,389.234863   C175.891418,389.239227 176.297058,389.243591 177.576523,389.567444   C179.428116,389.702606 181.279724,389.837769 183.236282,390.155975   C183.236282,390.155975 183.607712,390.108490 184.536469,390.452118   C189.356735,390.587402 194.177017,390.722717 199.652863,391.079865   C201.445984,391.001831 203.239105,390.923798 205.757492,390.965149   C206.488632,390.920746 207.219757,390.876343 208.885620,390.963013   C282.564911,391.789520 344.788300,341.580841 364.582489,301.718597   C358.143097,301.718597 351.819397,301.345459 345.582581,301.918243   C343.358490,302.122498 340.815491,304.208466 339.320496,306.135590   C329.044281,319.382202 317.091583,330.822205 303.505188,340.613495   C277.145203,359.610260 247.502731,369.436310 214.383682,372.174133   C206.590164,372.170135 198.796631,372.166107 190.392288,371.889801   C189.950378,371.884552 189.508469,371.879333 188.320312,371.557495   C181.852356,370.621277 175.384384,369.685059 168.422470,368.396271   C167.631500,368.264343 166.840515,368.132416 166.017090,367.956757   C166.017090,367.956757 165.968903,367.982086 165.431122,367.665771   C164.617508,367.532135 163.803894,367.398468 162.515991,367.016541   C162.337585,367.012207 162.159180,367.007874 161.814072,366.788757   C161.633698,366.681061 161.465088,366.697083 160.532379,366.409027   C146.826950,363.408020 134.463348,357.073273 121.524323,350.428192   C120.495216,349.886230 119.466110,349.344269 118.494759,348.683105   C118.494759,348.683105 118.316849,348.757782 117.717995,348.283691   C117.474556,348.209106 117.231117,348.134521 116.566719,347.531647   C114.044060,346.027618 111.521400,344.523590 108.642693,342.449615   C99.014542,334.056030 88.910172,326.141083 79.874718,317.151764   C67.652069,304.991547 58.945255,290.160980 50.717285,274.310669   C49.544655,271.789246 48.372025,269.267822 47.292805,266.530426   C47.292805,266.530426 46.964191,266.233917 46.869823,265.469360   C43.403442,252.316315 39.937057,239.163254 36.579098,225.396393   C36.371433,224.602859 36.163769,223.809326 35.997391,222.093262   C35.741623,219.328781 35.485851,216.564285 35.390972,213.235748   C35.257229,212.494522 35.123482,211.753296 35.008862,210.093536   C34.961319,206.723648 34.913776,203.353745 34.998196,199.186066   C35.142265,196.789474 35.286335,194.392868 35.674755,191.165985   C35.772507,189.438492 35.870255,187.710983 36.330650,185.290695   C36.703400,181.857559 37.076149,178.424408 37.731350,174.351883   C37.749405,173.889267 37.767456,173.426636 38.034321,172.324554   C38.257408,171.213455 38.480495,170.102341 38.907215,168.344070   C38.927193,167.892685 38.947166,167.441284 39.385574,166.427582   C39.575294,165.283234 39.765011,164.138870 40.358692,162.423660   C40.565544,161.280701 40.772396,160.137726 41.467442,158.466568   C43.609127,152.300262 45.750813,146.133957 48.347187,139.372559   C48.914524,136.619324 49.481861,133.866074 50.707584,131.005219   C51.158035,130.382690 51.608486,129.760147 52.705456,128.901962   C57.921284,120.688759 63.137108,112.475563 68.271118,104.261406   C68.271118,104.261406 68.273430,104.343201 68.792305,104.036552   C69.198021,103.361832 69.603737,102.687111 70.000610,102.000610   C70.000610,102.000610 70.012512,102.008583 70.560272,101.716270   C71.106117,100.854919 71.651962,99.993568 72.129875,99.117355   C72.129875,99.117355 72.135391,99.186661 72.656219,98.840462   C72.933296,98.280426 73.210381,97.720398 73.334518,97.314766   C73.334518,97.314766 73.490929,97.465645 74.035591,97.059189   C75.236000,95.110939 77.314209,93.231094 77.472374,91.201614   C77.948524,85.092102 77.834251,78.917633 77.573128,72.784546   C77.516510,71.454712 75.885902,70.191895 74.980255,68.898209   C73.648735,69.923439 72.317223,70.948669 70.991905,71.991791   C70.991905,71.991791 70.973724,71.987679 70.385017,72.294785   C59.671562,83.545914 49.811146,95.444138 42.171196,109.355110   C42.171196,109.355110 42.164074,109.628624 41.697495,110.056046   C32.986240,124.783463 26.124115,140.276123 22.090343,157.495316   C22.066151,157.665024 22.041958,157.834747 21.511759,158.424072   C21.424417,159.285446 21.337078,160.146820 21.078215,161.673645   C21.057697,162.131088 21.037180,162.588516 20.525282,163.627640   C20.403164,165.407211 20.281046,167.186783 20.031498,169.748032   C19.363243,173.167923 18.694990,176.587814 17.653580,180.412537   C17.630049,180.943192 17.606516,181.473846 17.314816,182.870163   C17.222221,185.584381 17.129627,188.298615 16.637705,191.579300   C16.573921,192.722870 16.510136,193.866455 16.240509,195.844940   C16.273458,197.559906 16.306406,199.274872 16.175873,201.911957   C16.499359,208.264618 16.822845,214.617264 17.041668,221.776779   C17.160707,222.847092 17.279747,223.917404 17.321243,225.663422   C17.496971,226.466614 17.672697,227.269821 17.962217,228.932816   C18.334848,231.722412 18.594172,234.532684 19.098953,237.298172   C21.865749,252.456085 25.760885,267.262787 33.076736,281.726044   C34.373386,284.173859 35.670040,286.621643 37.057255,289.635406   C37.358284,290.097595 37.659313,290.559753 38.051594,291.575378   C38.299973,291.826569 38.548351,292.077789 38.685738,292.121094   C38.685738,292.121094 38.478676,292.233673 38.686649,292.884766   C39.482883,294.199463 40.279114,295.514160 41.049793,296.917145   C41.049793,296.917145 41.138271,296.942017 41.240700,297.406036   C41.404438,297.693024 41.639519,297.898315 42.047607,298.597809   C42.372559,299.062988 42.697510,299.528137 43.153400,300.657837   C44.416843,302.460266 45.680290,304.262726 46.999157,306.008453   C46.999157,306.008453 46.931789,306.049500 47.051208,306.665375   C47.683475,307.463440 48.315742,308.261505 48.999710,309.004333   C48.999710,309.004333 48.938244,309.047760 49.097775,309.709961   C50.722618,311.815979 52.347466,313.922028 54.000153,316.000000   C54.000153,316.000000 53.970695,316.025848 54.152554,316.684113   C56.430958,319.456726 58.709366,322.229309 60.996059,325.003662   C60.996059,325.003662 60.996742,325.012817 61.207272,325.557037   C61.791218,326.054901 62.375164,326.552734 62.998798,327.000641   C62.998798,327.000641 62.949341,327.041107 63.149151,327.681335   C65.298325,329.917542 67.447502,332.153748 69.706779,334.278870   C69.706779,334.278870 69.593895,334.170624 69.817688,334.756470   C70.166534,334.967316 70.515388,335.178162 70.838966,335.143524  M300.003784,157.998688   C300.003784,157.998688 299.983917,157.973022 300.502533,157.641937   C301.003143,156.760651 301.503784,155.879349 301.997986,154.998779   C301.997986,154.998779 301.998993,155.006119 302.540985,154.643982   C303.493195,153.192032 304.445435,151.740067 305.304047,150.282242   C305.304047,150.282242 305.301758,150.376053 305.800751,150.040024   C306.179382,149.350510 306.557983,148.660995 306.997162,147.977478   C306.997162,147.977478 306.964813,147.925888 307.472290,147.586548   C307.958435,146.713562 308.444580,145.840576 308.992859,144.972229   C308.992859,144.972229 308.959991,144.919312 309.466919,144.583298   C309.954590,143.711594 310.442261,142.839874 310.991913,141.974197   C310.991913,141.974197 310.960327,141.920532 311.531006,141.550949   C312.207886,139.779236 312.884735,138.007523 313.561615,136.235809   C311.760803,135.679245 309.962402,134.646698 308.158844,134.637680   C282.170197,134.507767 256.180481,134.449463 230.192368,134.599747   C227.788406,134.613647 225.393326,136.164078 223.001221,137.001221   C223.001221,137.001221 223.000870,136.994293 222.451477,137.255859   C222.072037,138.171646 221.692612,139.087418 221.106339,140.785385   C221.182755,141.853104 221.259171,142.920837 221.319321,144.598740   C221.870743,145.416290 222.422165,146.233841 223.002182,147.004822   C223.002182,147.004822 222.950195,147.021683 223.103439,147.641068   C223.933151,148.577423 224.762863,149.513779 225.894531,150.148071   C225.894531,150.148071 225.573257,150.429367 225.928665,150.913055   C226.626190,151.255753 227.323730,151.598465 228.674118,152.473114   C237.443649,152.605774 246.213181,152.738419 255.388214,153.010681   C255.388214,153.010681 255.815491,153.047272 256.110779,153.552521   C256.578369,153.389526 257.045990,153.226532 258.190399,153.269943   C259.124756,153.207794 260.059143,153.145645 261.554474,153.262451   C268.034363,153.258362 274.514252,153.254257 280.934784,154.021408   C275.215210,162.370148 269.537445,170.747925 263.766571,179.061035   C254.390991,192.566742 242.282379,204.780853 243.431900,223.171936   C243.542175,224.936005 242.705551,226.744751 242.437027,228.551849   C242.242477,229.861221 241.917343,231.305634 242.277496,232.500870   C242.661163,233.774048 243.580536,235.164352 244.675293,235.816895   C245.158981,236.105209 247.004425,234.943604 247.633942,234.028885   C259.126495,217.329514 270.528076,200.567551 282.473236,183.461166   C283.136383,182.367157 283.799530,181.273132 284.291351,180.223297   C284.291351,180.223297 284.338623,180.393784 284.870972,179.994919   C286.098175,178.098358 287.325378,176.201813 288.422058,174.348465   C288.422058,174.348465 288.469635,174.477448 288.940002,174.102066   C289.302185,173.404282 289.664398,172.706497 289.993195,171.999115   C289.993195,171.999115 290.011871,172.028671 290.584320,171.687653   C292.374207,169.117279 294.164093,166.546890 296.005829,163.989822   C296.005829,163.989822 295.972382,163.947906 296.510864,163.587082   C297.165161,162.458908 297.819489,161.330734 298.315704,160.240646   C298.315704,160.240646 298.357086,160.397934 298.843475,160.050735   C299.220673,159.362442 299.597839,158.674133 300.003784,157.998688  M240.006165,274.002533   C240.006165,274.002533 239.985397,273.972504 239.437317,274.297729   C238.622070,275.529480 237.806824,276.761230 236.452591,278.328064   C235.626785,279.544342 234.800980,280.760620 233.386322,282.374847   C231.515594,286.657288 232.089783,287.887421 236.301239,287.977203   C240.208542,288.060486 244.121826,287.862427 248.946762,287.913940   C252.954086,287.868011 256.961426,287.822083 261.880432,287.928894   C265.263672,287.881042 268.646942,287.833221 272.925903,287.909790   C275.940308,287.869232 278.954712,287.828674 282.842773,287.938110   C284.904999,287.886414 286.967224,287.834686 289.904968,287.905518   C292.260712,287.858582 294.616455,287.811615 297.903198,287.916809   C307.322235,287.930298 316.745544,288.102386 326.157410,287.849335   C328.609009,287.783447 331.024963,286.391998 333.600220,285.612030   C333.600220,285.612030 333.610291,285.469452 334.103363,285.102325   C334.725800,284.066345 335.348236,283.030365 336.494507,281.538605   C337.543304,279.280396 338.719757,277.071320 339.612488,274.753021   C341.147736,270.766052 340.055573,269.010162 335.903778,269.009735   C318.279816,269.007904 300.655884,269.104553 282.127075,269.041687   C279.088104,269.081787 276.049133,269.121887 272.213745,269.023499   C271.140015,269.067841 270.066315,269.112183 268.312103,269.011292   C267.940125,268.370575 267.568146,267.729828 267.743256,266.718170   C270.409027,262.909149 273.082123,259.105255 275.739471,255.290375   C301.741669,217.961044 327.732941,180.624100 353.760864,143.312729   C355.428741,140.921829 357.374268,138.724655 359.589813,136.693573   C359.589813,136.693573 360.017273,136.899170 360.101471,137.497330   C360.418427,137.994080 360.735382,138.490845 361.119293,139.741196   C363.453461,146.161499 365.787628,152.581802 368.177795,159.832809   C368.410614,160.328659 368.643463,160.824509 368.763245,161.503189   C368.763245,161.503189 369.036591,161.798248 369.067444,162.709702   C369.329193,163.571976 369.590912,164.434250 369.737854,165.509430   C369.737854,165.509430 370.028076,165.868835 370.048004,166.728104   C370.264008,167.548462 370.480011,168.368835 370.620026,169.484543   C370.679962,169.696503 370.811584,169.845016 371.023651,170.649948   C371.115875,171.118713 371.208099,171.587463 371.234772,172.671112   C371.494934,173.432465 371.755096,174.193817 372.042267,175.484955   C372.091553,175.654770 372.140808,175.824570 372.090973,176.767151   C372.413330,178.504410 372.735657,180.241669 373.020142,182.735825   C373.095520,183.486557 373.170929,184.237289 373.153107,185.870560   C373.508057,190.250458 373.862976,194.630356 374.104095,199.668121   C374.156006,200.108185 374.207947,200.548233 374.113403,201.913040   C373.810425,209.608597 373.507416,217.304169 373.033356,225.594788   C372.990601,226.411743 372.947845,227.228699 372.608856,228.743973   C372.518555,229.492508 372.428253,230.241028 372.091400,231.767105   C367.750824,245.917038 363.410278,260.066956 358.611511,274.688080   C357.472382,276.879639 356.304474,279.056824 355.202057,281.266693   C354.023071,283.630127 354.831055,285.405914 357.381195,285.443420   C362.582062,285.519958 367.789459,285.153198 373.549744,284.881897   C373.715942,284.795166 373.882141,284.708435 374.409698,284.589691   C374.642365,284.474121 374.786774,284.289520 375.370422,283.806244   C375.579102,283.493500 375.787781,283.180756 376.485352,282.586853   C376.634277,282.054138 376.783203,281.521454 377.370361,280.554871   C379.288330,275.766113 381.524384,271.075378 383.037994,266.162048   C384.664825,260.881439 385.613464,255.391907 387.226227,249.324814   C387.501740,247.927429 387.777222,246.530045 388.702362,244.750381   C389.700836,239.496078 390.699310,234.241776 391.876678,228.202377   C391.904633,227.129761 391.932587,226.057159 392.379944,224.429657   C392.455750,223.282501 392.531555,222.135330 392.794495,220.344727   C392.783295,219.900299 392.772125,219.455887 392.941833,218.174042   C392.933594,210.794815 392.925323,203.415573 392.961548,195.142624   C392.848663,192.765366 392.735779,190.388107 392.743530,187.189072   C392.525116,186.115402 392.306671,185.041718 392.229645,183.699249   C392.243225,183.468887 392.146393,183.302933 391.962372,182.325699   C391.766968,180.892273 391.571594,179.458832 391.495178,177.449081   C391.308929,176.698883 391.122681,175.948685 390.929443,174.274826   C390.668671,173.084610 390.407867,171.894409 390.276581,170.495468   C390.276581,170.495468 389.970337,170.141937 389.957672,169.550827   C389.907928,169.360138 389.858185,169.169434 389.877563,168.503754   C389.877563,168.503754 389.720459,168.050201 389.701660,167.214432   C389.502075,166.698318 389.302490,166.182220 389.231506,165.491348   C389.231506,165.491348 388.963379,165.186920 388.930725,164.312515   C388.711639,163.472748 388.492554,162.632980 388.381989,161.504791   C388.324646,161.289276 388.193420,161.137604 387.954315,160.124786   C387.656860,158.934433 387.359436,157.744064 387.200592,156.478912   C387.200592,156.478912 386.974762,156.340561 386.813019,155.416138   C386.583832,154.836792 386.354645,154.257462 386.254272,153.502518   C386.254272,153.502518 385.961426,153.223450 385.873810,152.364746   C385.663757,151.835541 385.453705,151.306335 385.328552,150.516113   C385.286621,150.317307 385.169464,150.184998 384.906494,149.322754   C384.721436,148.828384 384.536377,148.334030 384.409851,147.530731   C384.338745,147.314270 384.195587,147.168472 383.885681,146.274857   C383.674255,145.775696 383.462830,145.276535 383.326813,144.522888   C383.283264,144.329407 383.165894,144.206009 382.848236,143.269241   C382.607025,142.730530 382.365814,142.191818 382.243683,141.502930   C382.243683,141.502930 381.976593,141.280029 381.862305,140.491409   C381.354462,139.271545 380.846588,138.051682 380.388245,136.533630   C380.323334,136.323746 380.187103,136.182602 379.851074,135.235764   C379.598083,134.709427 379.345062,134.183105 379.210663,133.522949   C379.210663,133.522949 378.961578,133.327179 378.822937,132.583847   C373.501373,122.398010 368.179810,112.212173 362.788544,101.458107   C361.885254,101.645477 360.981995,101.832855 359.606720,102.386909   C359.414551,102.731400 359.222382,103.075890 358.847839,103.413727   C358.847839,103.413727 358.851837,103.716316 358.274017,104.299561   C357.861847,105.004433 357.449677,105.709312 356.858521,106.416023   C356.858521,106.416023 356.856110,106.719635 356.269653,107.250458   C355.867889,107.926041 355.466156,108.601624 354.573608,109.690170   C352.420593,112.804626 350.267578,115.919090 347.653503,119.394814   C347.426819,119.710091 347.200134,120.025360 346.730286,120.363609   C346.730286,120.363609 346.590179,120.778625 346.133575,121.367928   C325.653442,150.670364 305.136078,179.946854 284.705750,209.283966   C270.076965,230.290329 255.564697,251.377884 240.583939,272.689606   C240.379456,273.124664 240.174973,273.559723 240.006165,274.002533  M113.172073,40.068439   C112.124565,40.751499 111.077057,41.434563 109.345848,42.242069   C106.093063,44.252968 102.917549,46.404972 99.567993,48.239143   C95.351555,50.548004 93.880150,53.661915 93.901161,58.676426   C94.119720,110.827286 94.028641,162.979431 94.038506,215.131226   C94.038979,217.627563 93.938568,220.158478 94.291153,222.615021   C100.060959,262.814545 139.177490,287.489288 180.342972,272.797272   C213.529602,260.952911 230.641571,232.450165 226.810211,197.234070   C223.765259,169.246262 208.365250,149.589584 182.523483,139.272995   C159.793060,130.198532 137.168671,132.383209 115.878296,144.182617   C115.820190,126.074570 115.797592,107.966316 115.692642,89.858543   C115.609917,75.584267 115.425751,61.310581 115.548874,46.221630   C115.435219,44.814095 115.321571,43.406555 115.428169,41.332592   C115.316788,40.889477 115.205406,40.446362 115.135063,39.588589   C114.685593,39.700798 114.236122,39.813007 113.172073,40.068439  M293.509857,41.085110   C292.068878,40.251740 290.677551,39.314293 289.179749,38.600086   C241.590302,15.907785 192.764130,11.282962 142.425903,28.546501   C133.437805,31.628977 133.408661,31.543982 133.357620,41.131493   C133.314362,49.259789 135.642136,50.963264 143.262222,48.170658   C171.484131,37.827934 200.500610,34.579559 230.171783,39.302052   C271.204742,45.832897 305.107544,65.440315 332.489685,96.542564   C334.327545,98.630096 336.215607,100.673431 338.631317,103.347237   C340.888611,99.901917 342.969116,97.135704 344.615082,94.131416   C348.377960,87.263260 348.084167,85.279663 342.621552,79.573875   C328.266388,64.579796 312.411987,51.473518 293.509857,41.085110  z"/>
<path fill="#5FA0A9" opacity="1.000000" stroke="none" d=" M115.207924,41.999020   C115.321571,43.406555 115.435219,44.814095 115.186371,46.898426   C114.551437,49.013992 114.043716,50.452362 114.041283,51.891586   C113.991829,81.096764 113.967728,110.302170 114.075943,139.507019   C114.082619,141.308228 115.223633,143.105240 115.836876,144.904205   C137.168671,132.383209 159.793060,130.198532 182.523483,139.272995   C208.365250,149.589584 223.765259,169.246262 226.810211,197.234070   C230.641571,232.450165 213.529602,260.952911 180.342972,272.797272   C139.177490,287.489288 100.060959,262.814545 94.291153,222.615021   C93.938568,220.158478 94.038979,217.627563 94.038506,215.131226   C94.028641,162.979431 94.119720,110.827286 93.901161,58.676426   C93.880150,53.661915 95.351555,50.548004 99.567993,48.239143   C102.917549,46.404972 106.093063,44.252968 109.949951,42.290035   C112.105339,42.225006 113.656631,42.112015 115.207924,41.999020  M116.960014,173.975449   C116.960014,173.975449 117.078529,173.956635 116.739082,174.549408   C116.534851,175.196060 116.330612,175.842712 116.288933,176.736191   C116.288933,176.736191 116.125732,176.982574 115.965584,177.207565   C115.830963,177.459549 115.809700,177.724350 115.942795,178.448547   C115.814781,178.868942 115.686760,179.289322 115.033318,180.407715   C115.167961,183.666946 115.302605,186.926163 115.664017,190.823654   C115.584473,191.486237 115.504921,192.148819 114.920074,193.524887   C114.620010,200.590698 114.214432,207.654892 114.104744,214.723648   C114.081505,216.221054 115.139221,217.735214 115.919052,219.878113   C118.698601,236.369873 127.357460,248.620193 143.657471,253.168625   C180.612518,263.480835 205.959122,236.120300 205.824661,204.965118   C205.718353,180.333435 188.963898,160.578354 166.808121,156.682831   C147.189682,153.233444 128.180237,156.506973 117.680016,173.399643   C117.445412,173.630371 117.211548,173.861816 116.960014,173.975449  z"/>
<path fill="#50858E" opacity="1.000000" stroke="none" d=" M293.841003,41.243965   C312.411987,51.473518 328.266388,64.579796 342.621552,79.573875   C348.084167,85.279663 348.377960,87.263260 344.615082,94.131416   C342.969116,97.135704 340.888611,99.901917 338.631317,103.347237   C336.215607,100.673431 334.327545,98.630096 332.489685,96.542564   C305.107544,65.440315 271.204742,45.832897 230.171783,39.302052   C200.500610,34.579559 171.484131,37.827934 143.262222,48.170658   C135.642136,50.963264 133.314362,49.259789 133.357620,41.131493   C133.408661,31.543982 133.437805,31.628977 142.425903,28.546501   C192.764130,11.282962 241.590302,15.907785 289.179749,38.600086   C290.677551,39.314293 292.068878,40.251740 293.841003,41.243965  z"/>
<path fill="#548991" opacity="1.000000" stroke="none" d=" M357.037537,106.414200   C357.449677,105.709312 357.861847,105.004433 358.593750,103.960472   C358.913483,103.621384 359.030243,103.420387 359.030243,103.420387   C359.222382,103.075890 359.414551,102.731400 360.190186,102.201447   C361.468506,102.019440 362.163361,102.022896 362.858246,102.026337   C368.179810,112.212173 373.501373,122.398010 378.913086,133.010864   C379.003265,133.437897 379.092072,133.656769 379.092041,133.656769   C379.345062,134.183105 379.598083,134.709427 379.964233,135.798965   C380.151337,136.526062 380.238434,136.682602 380.338745,136.831802   C380.846588,138.051682 381.354462,139.271545 381.940094,140.949371   C382.017883,141.407333 382.124603,141.653107 382.124603,141.653107   C382.365814,142.191818 382.607025,142.730530 382.950348,143.818573   C383.052460,144.367920 383.251373,144.777390 383.251373,144.777390   C383.462830,145.276535 383.674255,145.775696 383.982605,146.814819   C384.155029,147.524887 384.245636,147.686508 384.351318,147.839661   C384.536377,148.334030 384.721436,148.828384 384.978455,149.834015   C385.050446,150.345261 385.243652,150.777115 385.243652,150.777115   C385.453705,151.306335 385.663757,151.835541 385.942078,152.871124   C386.010345,153.377502 386.125458,153.678116 386.125458,153.678116   C386.354645,154.257462 386.583832,154.836792 386.903809,155.915497   C386.994598,156.414856 387.061981,156.553711 387.061981,156.553711   C387.359436,157.744064 387.656860,158.934433 388.007812,160.715668   C388.118927,161.474472 388.189636,161.636688 388.273438,161.793213   C388.492554,162.632980 388.711639,163.472748 388.968506,164.830231   C389.006317,165.347931 389.102875,165.666122 389.102875,165.666122   C389.302490,166.182220 389.502075,166.698318 389.666901,167.748138   C389.591583,168.537582 389.650330,168.769882 389.808411,168.978729   C389.858185,169.169434 389.907928,169.360138 389.989502,169.941544   C390.021362,170.332260 390.147095,170.704193 390.147095,170.704193   C390.407867,171.894409 390.668671,173.084610 390.932861,175.073700   C390.930481,176.545303 390.924713,177.218063 390.588196,177.791138   C388.199219,172.478531 386.140961,167.265594 384.025391,161.907486   C383.033661,163.402542 382.102936,164.805588 381.389313,165.881393   C379.456940,164.625122 377.930023,163.632431 376.403076,162.639725   C375.590942,164.627182 374.537872,166.555252 374.029694,168.617599   C373.438995,171.014832 373.325836,173.529724 372.801575,175.993530   C372.597717,175.993546 372.190094,175.994385 372.190094,175.994385   C372.140808,175.824570 372.091553,175.654770 372.014221,174.917679   C371.757538,173.585678 371.528931,172.820953 371.300293,172.056229   C371.208099,171.587463 371.115875,171.118713 370.976685,170.161652   C370.864227,169.506012 370.786316,169.344620 370.696014,169.189194   C370.480011,168.368835 370.264008,167.548462 370.013123,166.201508   C369.978271,165.674927 369.852661,165.296509 369.852661,165.296509   C369.590912,164.434250 369.329193,163.571976 369.027466,162.173279   C368.987488,161.636871 368.876282,161.320358 368.876282,161.320358   C368.643463,160.824509 368.410614,160.328659 368.524414,159.429657   C370.706360,158.773453 374.010223,158.799805 374.120758,158.218597   C374.581024,155.799362 374.593048,153.024765 373.813141,150.701584   C372.577087,147.019775 370.766602,143.482162 368.786865,140.126831   C368.150940,139.049118 366.266357,138.407623 364.854340,138.180603   C363.661102,137.988770 362.325134,138.684616 361.052338,138.987579   C360.735382,138.490845 360.418427,137.994080 359.978790,137.102875   C359.666687,136.540634 359.444855,136.450287 359.190643,136.437363   C357.374268,138.724655 355.428741,140.921829 353.760864,143.312729   C327.732941,180.624100 301.741669,217.961044 275.739471,255.290375   C273.082123,259.105255 270.409027,262.909149 267.282104,266.630798   C267.746368,264.219574 268.318329,261.658295 269.681580,259.628479   C271.635895,256.718719 272.682526,253.760727 270.523254,250.905579   C269.353149,249.358368 266.973267,248.726044 265.139099,247.681030   C264.795197,249.545074 264.471130,251.413071 264.102112,253.272125   C263.691071,255.342728 263.768402,257.764893 262.670746,259.379944   C261.304260,261.390503 258.953247,262.731964 257.027374,264.362335   C257.109619,265.483887 256.256470,265.640137 255.892059,265.289062   C252.840225,262.348877 250.687256,263.492889 248.760300,266.611847   C247.456848,268.721588 246.132233,270.849152 244.550476,272.746460   C243.232422,274.327484 241.526459,275.585114 239.992462,276.609619   C239.990219,275.479675 239.987808,274.726074 239.985397,273.972504   C239.985397,273.972504 240.006165,274.002533 240.160019,273.833618   C240.542725,273.252869 240.771591,272.841034 241.000443,272.429199   C255.564697,251.377884 270.076965,230.290329 284.705750,209.283966   C305.136078,179.946854 325.653442,150.670364 346.435852,121.013626   C346.738159,120.659325 346.973419,120.340630 346.973419,120.340637   C347.200134,120.025360 347.426819,119.710091 348.272278,119.204636   C354.581940,118.145332 356.212097,115.574150 355.064423,109.277206   C355.466156,108.601624 355.867889,107.926041 356.593445,106.935425   C356.917236,106.620392 357.037537,106.414200 357.037537,106.414200  z"/>
<path fill="#50858D" opacity="1.000000" stroke="none" d=" M215.355682,372.321960   C247.502731,369.436310 277.145203,359.610260 303.505188,340.613495   C317.091583,330.822205 329.044281,319.382202 339.320496,306.135590   C340.815491,304.208466 343.358490,302.122498 345.582581,301.918243   C351.819397,301.345459 358.143097,301.718597 364.582489,301.718597   C344.788300,341.580841 282.564911,391.789520 208.189636,390.768066   C206.673172,390.664032 205.852707,390.754913 205.032227,390.845764   C203.239105,390.923798 201.445984,391.001831 199.382019,390.630005   C199.284760,389.716492 199.364899,389.184723 199.645737,388.799164   C204.926117,381.549927 204.913925,381.603760 196.278259,378.654663   C195.203445,378.287628 194.426147,377.049408 193.510971,376.214905   C194.626358,375.490540 195.669876,374.338440 196.873016,374.136353   C198.973328,373.783478 201.190628,374.191284 203.325180,373.963898   C207.348007,373.535370 211.346863,372.881897 215.355682,372.321960  z"/>
<path fill="#558C95" opacity="1.000000" stroke="none" d=" M221.335587,143.988556   C221.259171,142.920837 221.182755,141.853104 221.464325,140.231567   C222.215164,138.783264 222.608017,137.888779 223.000854,136.994293   C223.000870,136.994293 223.001221,137.001221 223.406265,136.911652   C226.109238,136.549454 228.406631,136.045013 230.705154,136.039795   C255.773956,135.982971 280.843506,136.091217 305.911316,135.926376   C310.583069,135.895645 312.485992,137.210541 310.960327,141.920532   C310.960327,141.920532 310.991913,141.974197 310.683533,142.115662   C309.903412,143.144516 309.431702,144.031906 308.959991,144.919312   C308.959991,144.919312 308.992859,144.972229 308.684692,145.115692   C307.905975,146.148056 307.435394,147.036972 306.964813,147.925888   C306.964813,147.925888 306.997162,147.977478 306.697144,148.124435   C306.032013,148.972946 305.666870,149.674500 305.301758,150.376038   C305.301758,150.376053 305.304047,150.282242 305.000366,150.347168   C303.797455,151.943451 302.898224,153.474792 301.999023,155.006134   C301.998993,155.006119 301.997986,154.998779 301.713928,155.137100   C300.947876,156.174622 300.465912,157.073822 299.983917,157.973022   C299.983917,157.973022 300.003784,157.998688 299.716156,158.139374   C299.071381,158.986023 298.714233,159.691971 298.357056,160.397919   C298.357086,160.397934 298.315704,160.240646 298.072815,160.363007   C297.210754,161.639557 296.591553,162.793732 295.972382,163.947906   C295.972382,163.947906 296.005829,163.989822 295.653076,164.083557   C293.537506,166.794418 291.774689,169.411545 290.011871,172.028671   C290.011871,172.028671 289.993195,171.999115 289.730927,172.150116   C289.135651,173.026566 288.802643,173.751999 288.469635,174.477448   C288.469635,174.477448 288.422058,174.348465 288.132782,174.428909   C286.675201,176.470825 285.506897,178.432297 284.338623,180.393768   C284.338623,180.393784 284.291351,180.223297 284.060669,180.339981   C283.203003,181.577408 282.575989,182.698151 281.949005,183.818878   C270.528076,200.567551 259.126495,217.329514 247.633942,234.028885   C247.004425,234.943604 245.158981,236.105209 244.675293,235.816895   C243.580536,235.164352 242.661163,233.774048 242.277496,232.500870   C241.917343,231.305634 242.242477,229.861221 242.437027,228.551849   C242.705551,226.744751 243.542175,224.936005 243.431900,223.171936   C242.282379,204.780853 254.390991,192.566742 263.766571,179.061035   C269.537445,170.747925 275.215210,162.370148 280.689362,153.416412   C273.960449,152.902115 267.476990,152.992798 260.993500,153.083496   C260.059143,153.145645 259.124756,153.207794 257.426788,153.163696   C256.380585,153.054062 256.098022,153.050674 255.815491,153.047272   C255.815491,153.047272 255.388214,153.010681 254.814163,152.764969   C245.494751,152.009491 236.749390,151.499741 227.724350,150.839615   C226.820862,150.602631 226.197067,150.516006 225.573257,150.429367   C225.573257,150.429367 225.894531,150.148071 225.744537,149.947662   C224.713089,148.838715 223.831650,147.930191 222.950195,147.021683   C222.950195,147.021683 223.002182,147.004822 222.962524,146.719147   C222.393753,145.618500 221.864670,144.803528 221.335587,143.988556  z"/>
<path fill="#518991" opacity="1.000000" stroke="none" d=" M37.785511,172.964020   C37.767456,173.426636 37.749405,173.889267 37.341709,174.891876   C36.624046,178.949066 36.296024,182.466278 35.968002,185.983490   C35.870255,187.710983 35.772507,189.438492 35.310215,191.813232   C34.919193,194.968262 34.892712,197.476059 34.866234,199.983856   C34.913776,203.353745 34.961319,206.723648 34.871506,210.733215   C34.899456,212.181854 35.064770,212.990829 35.230080,213.799805   C35.485851,216.564285 35.741623,219.328781 35.836292,222.770599   C35.940353,224.302032 36.205517,225.156128 36.470676,226.010208   C39.937057,239.163254 43.403442,252.316315 46.951820,265.939392   C47.033813,266.409424 47.199390,266.746399 47.199394,266.746399   C48.372025,269.267822 49.544655,271.789246 50.361229,274.665161   C44.672951,274.493896 41.248207,276.163116 40.523170,282.138794   C40.311920,283.879883 38.223705,285.393250 36.979954,286.638000   C35.642685,284.510529 34.321308,282.756042 32.999935,281.001526   C25.760885,267.262787 21.865749,252.456085 19.098953,237.298172   C18.594172,234.532684 18.334848,231.722412 18.068876,228.285538   C17.916618,226.754745 17.657701,225.871231 17.398787,224.987717   C17.279747,223.917404 17.160707,222.847092 17.258869,220.999802   C17.097164,213.811829 16.718260,207.400833 16.339355,200.989838   C16.306406,199.274872 16.273458,197.559906 16.578552,195.260376   C16.956743,193.454803 16.996887,192.233826 17.037033,191.012833   C17.129627,188.298615 17.222221,185.584381 17.621267,182.326965   C17.960724,181.191757 17.993731,180.599731 18.026737,180.007706   C18.694990,176.587814 19.363243,173.167923 20.254238,169.021545   C20.656874,166.545349 20.836767,164.795654 21.016663,163.045959   C21.037180,162.588516 21.057697,162.131088 21.400322,161.213470   C21.820873,159.837021 21.919317,158.920761 22.017761,158.004486   C22.041958,157.834747 22.066151,157.665024 22.417469,157.169891   C23.162930,156.562973 23.581263,156.281494 24.256424,155.886444   C24.674936,154.848251 24.836620,153.923615 25.075880,152.672760   C26.102201,151.231018 27.050947,150.115509 28.327576,148.845154   C29.407263,147.306259 30.397814,145.996948 30.859549,144.522095   C31.733234,141.731415 32.303261,138.845642 32.999420,135.582779   C32.999966,133.777451 33.000549,132.388718 33.323910,131.087189   C36.005741,132.301041 38.007839,133.151550 39.864658,129.971466   C41.900333,126.485062 44.650158,123.415634 47.666340,119.394501   C47.721981,118.445648 47.861046,116.074280 48.000107,113.702911   C48.492546,113.706718 48.984985,113.710526 49.477428,113.714340   C50.985001,115.809563 52.492577,117.904785 53.999317,120.333435   C53.997105,121.111450 53.995728,121.556030 53.684845,122.131477   C50.489437,124.544617 48.311279,127.092873 50.049194,131.112839   C49.481861,133.866074 48.914524,136.619324 47.814018,139.823334   C45.180321,146.514328 43.079784,152.754547 40.979248,158.994766   C40.772396,160.137726 40.565544,161.280701 39.965034,162.925293   C39.369968,164.614578 39.168556,165.802231 38.967140,166.989899   C38.947166,167.441284 38.927193,167.892685 38.557598,168.819489   C38.067158,170.517960 37.926334,171.740982 37.785511,172.964020  z"/>
<path fill="#528891" opacity="1.000000" stroke="none" d=" M214.869690,372.248047   C211.346863,372.881897 207.348007,373.535370 203.325180,373.963898   C201.190628,374.191284 198.973328,373.783478 196.873016,374.136353   C195.669876,374.338440 194.626358,375.490540 193.510971,376.214905   C194.426147,377.049408 195.203445,378.287628 196.278259,378.654663   C204.913925,381.603760 204.926117,381.549927 199.645737,388.799164   C199.364899,389.184723 199.284760,389.716492 199.054230,390.519104   C194.177017,390.722717 189.356735,390.587402 183.995560,390.252289   C183.454651,390.052460 183.131317,389.972931 183.131317,389.972931   C181.279724,389.837769 179.428116,389.702606 176.954041,389.349762   C175.945908,389.071716 175.560257,389.011322 175.174606,388.950928   C173.975555,388.817719 172.776505,388.684509 171.046234,388.336914   C170.514999,388.122498 170.052246,387.987091 170.052246,387.987091   C169.225906,387.903870 168.399582,387.820618 166.979248,387.494629   C165.941833,387.162567 165.498444,387.073212 165.055038,386.983887   C164.231888,386.885376 163.408752,386.786865 162.074387,386.449646   C161.383377,386.120514 161.195724,386.051392 161.000214,386.003571   C160.824615,385.994141 160.649017,385.984680 160.116241,385.833405   C159.518143,385.595703 159.279739,385.604675 159.043839,385.718506   C158.493668,385.653961 157.943481,385.589386 156.928375,385.325806   C156.463425,385.126770 156.107651,384.985504 156.107651,384.985504   C156.107651,384.985504 156.041550,385.009338 156.102661,384.631866   C157.000565,381.658630 156.499207,379.771881 153.484329,379.241302   C150.694962,378.750397 149.145020,379.916382 148.857468,382.741699   C147.410751,382.377411 145.964020,382.013153 144.039322,381.381256   C143.561356,381.113617 143.192841,380.964417 143.192841,380.964417   C133.612274,376.817047 124.031708,372.669678 114.017670,368.080505   C113.086884,367.410614 112.589561,367.182495 112.092239,366.954376   C112.092247,366.954376 112.039925,366.989227 111.874428,366.675598   C110.752861,365.934387 109.796783,365.506805 108.840714,365.079224   C108.840706,365.079224 108.408432,365.003571 108.021103,364.791992   C107.396736,364.378784 107.139679,364.207184 106.862579,364.065552   C106.618713,364.009064 106.384148,363.926270 105.842651,363.429565   C105.004189,362.707794 104.481941,362.373627 103.959702,362.039490   C103.959694,362.039490 104.000000,362.000000 103.854958,361.706604   C101.767960,360.309662 99.826004,359.206085 97.884048,358.102509   C97.884048,358.102509 97.985161,358.035522 97.880402,357.800995   C97.506783,357.068817 97.237938,356.571136 97.098892,355.759277   C99.311653,353.725220 101.185242,350.951294 103.517776,350.487976   C109.901215,349.220123 109.977722,349.605316 108.998741,343.019562   C111.521400,344.523590 114.044060,346.027618 116.748428,348.143677   C117.648430,350.863037 118.366722,352.970367 119.085014,355.077698   C120.066643,353.689117 121.048279,352.300568 122.029915,350.911987   C134.463348,357.073273 146.826950,363.408020 161.030334,366.655426   C161.528290,366.901825 161.980789,367.003571 161.980789,367.003571   C162.159180,367.007874 162.337585,367.012207 162.769287,367.512848   C164.247559,373.761536 166.011688,375.055969 171.744247,373.755676   C170.741882,371.980927 169.829147,370.364868 168.916428,368.748840   C175.384384,369.685059 181.852356,370.621277 188.520813,371.927826   C188.589218,373.002869 188.457123,373.707550 188.325012,374.412262   C189.217712,373.662201 190.110413,372.912170 191.003113,372.162109   C198.796631,372.166107 206.590164,372.170135 214.869690,372.248047  z"/>
<path fill="#548E96" opacity="1.000000" stroke="none" d=" M239.992294,276.985962   C241.526459,275.585114 243.232422,274.327484 244.550476,272.746460   C246.132233,270.849152 247.456848,268.721588 248.760300,266.611847   C250.687256,263.492889 252.840225,262.348877 255.892059,265.289062   C256.256470,265.640137 257.109619,265.483887 257.027374,264.362335   C258.953247,262.731964 261.304260,261.390503 262.670746,259.379944   C263.768402,257.764893 263.691071,255.342728 264.102112,253.272125   C264.471130,251.413071 264.795197,249.545074 265.139099,247.681030   C266.973267,248.726044 269.353149,249.358368 270.523254,250.905579   C272.682526,253.760727 271.635895,256.718719 269.681580,259.628479   C268.318329,261.658295 267.746368,264.219574 267.008545,266.816284   C267.568146,267.729828 267.940125,268.370575 268.802429,269.342133   C270.531921,269.502655 271.771027,269.332306 273.010162,269.161987   C276.049133,269.121887 279.088104,269.081787 282.953491,269.267242   C285.919373,269.661438 288.058197,269.965240 290.198517,269.976257   C301.985321,270.036957 313.779358,269.782257 325.557556,270.112152   C336.170685,270.409393 336.934906,271.771576 333.903229,282.348755   C333.721863,283.609802 333.666077,284.539612 333.610291,285.469452   C333.610291,285.469452 333.600220,285.612030 333.083710,285.529419   C322.658722,285.638214 312.747162,285.742401 302.844421,286.094696   C300.869690,286.164948 298.928741,287.183441 296.972198,287.764648   C294.616455,287.811615 292.260712,287.858582 289.266846,287.565613   C286.408844,287.413177 284.188995,287.600647 281.969116,287.788116   C278.954712,287.828674 275.940308,287.869232 272.255035,287.554962   C267.945557,285.546875 264.365997,284.981384 260.968750,287.776154   C256.961426,287.822083 252.954086,287.868011 248.266449,287.557129   C244.383286,286.801605 241.180420,286.402924 237.886810,285.709991   C238.526093,282.609711 239.256149,279.803711 239.991821,276.998413   C239.997452,276.999115 239.992294,276.985962 239.992294,276.985962  z"/>
<path fill="#4F858D" opacity="1.000000" stroke="none" d=" M108.820717,342.734589   C109.977722,349.605316 109.901215,349.220123 103.517776,350.487976   C101.185242,350.951294 99.311653,353.725220 96.917732,355.922394   C96.368996,356.626038 96.149864,356.869141 95.949371,357.129059   C95.658310,356.967804 95.408539,356.757477 94.983688,355.953003   C93.496017,354.619019 92.224716,353.830109 90.953415,353.041199   C90.953423,353.041199 90.998283,352.999664 90.884140,352.697449   C89.515022,351.597321 88.260048,350.799377 87.005081,350.001465   C86.668556,349.938782 86.396713,349.771149 85.981651,348.953125   C84.699753,347.768341 83.625755,347.129028 82.551773,346.489685   C82.551773,346.489685 82.674477,346.373383 82.561859,346.182159   C81.957542,345.664917 81.465843,345.338928 80.974144,345.012909   C80.628738,344.972412 80.355713,344.810150 79.985199,343.956177   C77.411591,341.382965 75.007858,339.379700 72.604111,337.376465   C72.604111,337.376465 72.742912,337.247620 72.618362,337.088867   C72.194267,336.676514 71.894730,336.422882 71.595200,336.169250   C71.595200,336.169250 71.840889,336.142639 71.665260,336.037292   C71.190979,335.678162 70.892319,335.424377 70.593666,335.170624   C70.593666,335.170624 70.838966,335.143524 70.663918,335.037903   C70.190544,334.678406 69.892220,334.424500 69.593895,334.170624   C69.593895,334.170624 69.706779,334.278870 69.693314,333.955872   C67.436340,331.435638 65.192841,329.238373 62.949337,327.041107   C62.949341,327.041107 62.998798,327.000641 62.873161,326.748779   C62.163929,326.002228 61.580338,325.507507 60.996742,325.012817   C60.996742,325.012817 60.996059,325.003662 60.959831,324.638214   C58.605965,321.523804 56.288330,318.774811 53.970695,316.025848   C53.970695,316.025848 54.000153,316.000000 53.954258,315.654694   C52.251659,313.222168 50.594955,311.134979 48.938248,309.047760   C48.938244,309.047760 48.999710,309.004333 48.937561,308.705872   C48.227535,307.621429 47.579662,306.835449 46.931789,306.049500   C46.931789,306.049500 46.999157,306.008453 46.947830,305.672211   C45.605156,303.555084 44.313808,301.774200 43.022461,299.993317   C42.697510,299.528137 42.372559,299.062988 42.027039,298.157593   C41.717075,297.458923 41.427677,297.200470 41.138275,296.942017   C41.138271,296.942017 41.049793,296.917145 41.021465,296.529663   C40.154984,294.839325 39.316830,293.536499 38.478676,292.233673   C38.478676,292.233673 38.685738,292.121094 38.620323,291.994202   C38.356716,291.585541 38.158524,291.303741 37.960342,291.021942   C37.659313,290.559753 37.358284,290.097595 37.020336,289.009399   C36.987564,287.925934 36.991711,287.468445 36.995850,287.010986   C38.223705,285.393250 40.311920,283.879883 40.523170,282.138794   C41.248207,276.163116 44.672951,274.493896 50.421249,275.026398   C58.945255,290.160980 67.652069,304.991547 79.874718,317.151764   C88.910172,326.141083 99.014542,334.056030 108.820717,342.734589  z"/>
<path fill="#528B93" opacity="1.000000" stroke="none" d=" M373.005402,175.993530   C373.325836,173.529724 373.438995,171.014832 374.029694,168.617599   C374.537872,166.555252 375.590942,164.627182 376.403076,162.639725   C377.930023,163.632431 379.456940,164.625122 381.389313,165.881393   C382.102936,164.805588 383.033661,163.402542 384.025391,161.907486   C386.140961,167.265594 388.199219,172.478531 390.700928,177.832123   C391.144379,177.972794 391.376221,178.025406 391.376221,178.025406   C391.571594,179.458832 391.766968,180.892273 391.933502,182.926559   C391.904633,183.527420 391.865204,183.853348 391.606567,184.024734   C389.411407,186.256958 390.271820,187.382996 392.622864,188.010849   C392.735779,190.388107 392.848663,192.765366 392.760681,195.957092   C392.206543,203.694046 391.827240,210.615509 391.557373,217.541260   C391.538940,218.014969 392.340637,218.520645 392.760925,219.011459   C392.772125,219.455887 392.783295,219.900299 392.460083,220.829132   C392.070648,222.537216 392.015594,223.760880 391.960571,224.984543   C391.932587,226.057159 391.904633,227.129761 391.500549,228.751465   C386.273682,233.835434 389.326721,239.903809 388.052734,245.132645   C387.777222,246.530045 387.501740,247.927429 386.720459,249.760590   C380.318726,253.269135 380.351166,253.257690 378.069366,246.790207   C376.205353,241.506927 374.251801,236.255249 372.337952,230.989563   C372.428253,230.241028 372.518555,229.492508 373.023132,228.296722   C373.955811,226.900070 374.474243,225.950638 374.993683,224.553131   C375.214233,221.481644 375.722534,218.843735 375.591888,216.237869   C375.336578,211.145203 374.724335,206.070465 374.259857,200.988297   C374.207947,200.548233 374.156006,200.108185 374.450653,199.127960   C376.871552,193.759033 375.702881,189.300095 373.246307,184.988022   C373.170929,184.237289 373.095520,183.486557 373.208557,182.049103   C373.266418,179.572769 373.135895,177.783157 373.005402,175.993530  z"/>
<path fill="#528891" opacity="1.000000" stroke="none" d=" M54.000153,120.000008   C52.492577,117.904785 50.985001,115.809563 49.477428,113.714340   C48.984985,113.710526 48.492546,113.706718 48.000107,113.702911   C47.861046,116.074280 47.721981,118.445648 47.666340,119.394501   C44.650158,123.415634 41.900333,126.485062 39.864658,129.971466   C38.007839,133.151550 36.005741,132.301041 33.417198,130.756104   C35.320198,127.175034 38.044949,124.247276 39.419292,120.783691   C40.805519,117.290161 45.055008,114.230919 42.164074,109.628624   C42.164074,109.628624 42.171196,109.355110 42.622231,109.087738   C44.491615,107.219170 45.945915,105.648201 47.321690,104.011230   C51.790031,98.694572 55.407631,92.180321 60.898609,88.333931   C67.076141,84.006607 69.357010,78.497322 70.973724,71.987679   C70.973724,71.987679 70.991905,71.991791 71.398857,71.997223   C75.074677,71.878540 76.277710,73.750069 75.964241,76.667671   C75.218498,83.608780 74.324837,90.534004 73.490929,97.465645   C73.490929,97.465645 73.334518,97.314766 73.167450,97.439301   C72.712059,98.104782 72.423721,98.645721 72.135391,99.186661   C72.135391,99.186661 72.129875,99.117355 71.855957,99.232498   C71.058868,100.234619 70.535690,101.121597 70.012512,102.008583   C70.012512,102.008583 70.000610,102.000610 69.727097,102.142014   C69.060196,102.970009 68.666817,103.656609 68.273430,104.343201   C68.273430,104.343201 68.271118,104.261406 67.967499,104.323441   C66.682610,105.216858 65.559280,105.929039 64.744530,106.900124   C61.114876,111.226318 57.573460,115.626541 54.000153,120.000008  z"/>
<path fill="#50858E" opacity="1.000000" stroke="none" d=" M372.214661,231.378326   C374.251801,236.255249 376.205353,241.506927 378.069366,246.790207   C380.351166,253.257690 380.318726,253.269135 386.536346,250.094940   C385.613464,255.391907 384.664825,260.881439 383.037994,266.162048   C381.524384,271.075378 379.288330,275.766113 376.986084,280.980164   C376.400055,281.893005 376.198273,282.380524 375.996490,282.868042   C375.787781,283.180756 375.579102,283.493500 374.958984,283.994965   C374.356537,284.301666 374.190125,284.447693 374.048340,284.621735   C373.882141,284.708435 373.715942,284.795166 373.080872,284.619080   C371.918854,283.943878 371.231873,283.185944 370.531525,283.173401   C364.419922,283.063843 360.199829,280.649048 359.069702,274.216888   C363.410278,260.066956 367.750824,245.917038 372.214661,231.378326  z"/>
<path fill="#6EA4AC" opacity="1.000000" stroke="none" d=" M115.857590,144.543411   C115.223633,143.105240 114.082619,141.308228 114.075943,139.507019   C113.967728,110.302170 113.991829,81.096764 114.041283,51.891586   C114.043716,50.452362 114.551437,49.013992 115.055252,47.305931   C115.425751,61.310581 115.609917,75.584267 115.692642,89.858543   C115.797592,107.966316 115.820190,126.074570 115.857590,144.543411  z"/>
<path fill="#5F8A93" opacity="1.000000" stroke="none" d=" M311.245667,141.735748   C312.485992,137.210541 310.583069,135.895645 305.911316,135.926376   C280.843506,136.091217 255.773956,135.982971 230.705154,136.039795   C228.406631,136.045013 226.109238,136.549454 223.402710,136.911560   C225.393326,136.164078 227.788406,134.613647 230.192368,134.599747   C256.180481,134.449463 282.170197,134.507767 308.158844,134.637680   C309.962402,134.646698 311.760803,135.679245 313.561584,136.235809   C312.884735,138.007523 312.207886,139.779236 311.245667,141.735748  z"/>
<path fill="#52858E" opacity="1.000000" stroke="none" d=" M361.085815,139.364380   C362.325134,138.684616 363.661102,137.988770 364.854340,138.180603   C366.266357,138.407623 368.150940,139.049118 368.786865,140.126831   C370.766602,143.482162 372.577087,147.019775 373.813141,150.701584   C374.593048,153.024765 374.581024,155.799362 374.120758,158.218597   C374.010223,158.799805 370.706360,158.773453 368.496429,159.014313   C365.787628,152.581802 363.453461,146.161499 361.085815,139.364380  z"/>
<path fill="#51848C" opacity="1.000000" stroke="none" d=" M41.930786,109.842331   C45.055008,114.230919 40.805519,117.290161 39.419292,120.783691   C38.044949,124.247276 35.320198,127.175034 33.094421,130.668900   C33.000549,132.388718 32.999966,133.777451 32.651226,135.689453   C31.226570,137.711945 29.670963,139.071396 29.183544,140.742416   C28.412674,143.385193 28.357655,146.236786 27.999695,149.000000   C27.050947,150.115509 26.102201,151.231018 24.900757,152.941727   C24.431904,154.357956 24.215748,155.178970 23.999592,156.000000   C23.581263,156.281494 23.162930,156.562973 22.505049,156.928101   C26.124115,140.276123 32.986240,124.783463 41.930786,109.842331  z"/>
<path fill="#51848C" opacity="1.000000" stroke="none" d=" M70.679367,72.141235   C69.357010,78.497322 67.076141,84.006607 60.898609,88.333931   C55.407631,92.180321 51.790031,98.694572 47.321690,104.011230   C45.945915,105.648201 44.491615,107.219170 42.733231,109.007759   C49.811146,95.444138 59.671562,83.545914 70.679367,72.141235  z"/>
<path fill="#548991" opacity="1.000000" stroke="none" d=" M334.028778,282.017517   C336.934906,271.771576 336.170685,270.409393 325.557556,270.112152   C313.779358,269.782257 301.985321,270.036957 290.198517,269.976257   C288.058197,269.965240 285.919373,269.661438 283.405884,269.328979   C300.655884,269.104553 318.279816,269.007904 335.903778,269.009735   C340.055573,269.010162 341.147736,270.766052 339.612488,274.753021   C338.719757,277.071320 337.543304,279.280396 335.908752,281.769135   C334.891602,282.005615 334.460205,282.011566 334.028778,282.017517  z"/>
<path fill="#4C7E87" opacity="1.000000" stroke="none" d=" M358.840607,274.452484   C360.199829,280.649048 364.419922,283.063843 370.531525,283.173401   C371.231873,283.185944 371.918854,283.943878 372.803101,284.662628   C367.789459,285.153198 362.582062,285.519958 357.381195,285.443420   C354.831055,285.405914 354.023071,283.630127 355.202057,281.266693   C356.304474,279.056824 357.472382,276.879639 358.840607,274.452484  z"/>
<path fill="#51848C" opacity="1.000000" stroke="none" d=" M73.763260,97.262421   C74.324837,90.534004 75.218498,83.608780 75.964241,76.667671   C76.277710,73.750069 75.074677,71.878540 71.395752,71.988274   C72.317223,70.948669 73.648735,69.923439 74.980255,68.898209   C75.885902,70.191895 77.516510,71.454712 77.573128,72.784546   C77.834251,78.917633 77.948524,85.092102 77.472374,91.201614   C77.314209,93.231094 75.236000,95.110939 73.763260,97.262421  z"/>
<path fill="#58828B" opacity="1.000000" stroke="none" d=" M297.437683,287.840759   C298.928741,287.183441 300.869690,286.164948 302.844421,286.094696   C312.747162,285.742401 322.658722,285.638214 333.012268,285.528107   C331.024963,286.391998 328.609009,287.783447 326.157410,287.849335   C316.745544,288.102386 307.322235,287.930298 297.437683,287.840759  z"/>
<path fill="#51848C" opacity="1.000000" stroke="none" d=" M53.999317,120.333435   C57.573460,115.626541 61.114876,111.226318 64.744530,106.900124   C65.559280,105.929039 66.682610,105.216858 68.008408,104.323921   C63.137108,112.475563 57.921284,120.688759 52.452946,128.656204   C52.798409,126.273834 53.396381,124.137222 53.994350,122.000610   C53.995728,121.556030 53.997105,121.111450 53.999317,120.333435  z"/>
<path fill="#52858E" opacity="1.000000" stroke="none" d=" M374.186646,201.450668   C374.724335,206.070465 375.336578,211.145203 375.591888,216.237869   C375.722534,218.843735 375.214233,221.481644 374.695740,224.552765   C373.999329,225.000214 373.601898,224.999969 373.204437,224.999725   C373.507416,217.304169 373.810425,209.608597 374.186646,201.450668  z"/>
<path fill="#50858D" opacity="1.000000" stroke="none" d=" M168.669449,368.572571   C169.829147,370.364868 170.741882,371.980927 171.744247,373.755676   C166.011688,375.055969 164.247559,373.761536 163.006439,367.636993   C163.803894,367.398468 164.617508,367.532135 165.674774,367.853333   C165.918411,368.040863 166.049530,368.000519 166.049530,368.000488   C166.840515,368.132416 167.631500,368.264343 168.669449,368.572571  z"/>
<path fill="#52858E" opacity="1.000000" stroke="none" d=" M392.851379,218.592743   C392.340637,218.520645 391.538940,218.014969 391.557373,217.541260   C391.827240,210.615509 392.206543,203.694046 392.738403,196.403946   C392.925323,203.415573 392.933594,210.794815 392.851379,218.592743  z"/>
<path fill="#50858D" opacity="1.000000" stroke="none" d=" M149.157883,382.871704   C149.145020,379.916382 150.694962,378.750397 153.484329,379.241302   C156.499207,379.771881 157.000565,381.658630 156.091293,384.598633   C153.831985,384.295807 151.645142,383.648743 149.157883,382.871704  z"/>
<path fill="#52858E" opacity="1.000000" stroke="none" d=" M354.819031,109.483688   C356.212097,115.574150 354.581940,118.145332 348.502808,119.024002   C350.267578,115.919090 352.420593,112.804626 354.819031,109.483688  z"/>
<path fill="#58828B" opacity="1.000000" stroke="none" d=" M237.977570,286.004272   C241.180420,286.402924 244.383286,286.801605 247.809311,287.494263   C244.121826,287.862427 240.208542,288.060486 236.301239,287.977203   C232.089783,287.887421 231.515594,286.657288 233.734940,282.221252   C234.083557,282.067657 234.192047,282.158325 234.172836,282.515076   C235.428284,283.915955 236.702927,284.960114 237.977570,286.004272  z"/>
<path fill="#51848C" opacity="1.000000" stroke="none" d=" M16.257614,201.450897   C16.718260,207.400833 17.097164,213.811829 17.311199,220.596375   C16.822845,214.617264 16.499359,208.264618 16.257614,201.450897  z"/>
<path fill="#52858E" opacity="1.000000" stroke="none" d=" M388.377533,244.941513   C389.326721,239.903809 386.273682,233.835434 391.411102,229.144012   C390.699310,234.241776 389.700836,239.496078 388.377533,244.941513  z"/>
<path fill="#51848C" opacity="1.000000" stroke="none" d=" M41.223347,158.730667   C43.079784,152.754547 45.180321,146.514328 47.586678,140.120880   C45.750813,146.133957 43.609127,152.300262 41.223347,158.730667  z"/>
<path fill="#4F858D" opacity="1.000000" stroke="none" d=" M121.777115,350.670105   C121.048279,352.300568 120.066643,353.689117 119.085014,355.077698   C118.366722,352.970367 117.648430,350.863037 116.958908,348.407837   C117.231117,348.134521 117.474556,348.209106 118.041809,348.512421   C118.365623,348.741150 118.437012,348.802307 118.437012,348.802307   C119.466110,349.344269 120.495216,349.886230 121.777115,350.670105  z"/>
<path fill="#66929A" opacity="1.000000" stroke="none" d=" M228.004028,150.989990   C236.749390,151.499741 245.494751,152.009491 254.611420,152.695160   C246.213181,152.738419 237.443649,152.605774 228.344055,151.969330   C228.013992,151.465546 228.004028,150.989990 228.004028,150.989990  z"/>
<path fill="#52858E" opacity="1.000000" stroke="none" d=" M373.199707,185.429291   C375.702881,189.300095 376.871552,193.759033 374.507568,198.799026   C373.862976,194.630356 373.508057,190.250458 373.199707,185.429291  z"/>
<path fill="#66929A" opacity="1.000000" stroke="none" d=" M261.273987,153.172974   C267.476990,152.992798 273.960449,152.902115 280.719055,153.030792   C274.514252,153.254257 268.034363,153.258362 261.273987,153.172974  z"/>
<path fill="#528891" opacity="1.000000" stroke="none" d=" M53.684845,122.131477   C53.396381,124.137222 52.798409,126.273834 52.129684,128.774033   C51.608486,129.760147 51.158035,130.382690 50.378391,131.059021   C48.311279,127.092873 50.489437,124.544617 53.684845,122.131477  z"/>
<path fill="#4C7E87" opacity="1.000000" stroke="none" d=" M54.061623,316.354980   C56.288330,318.774811 58.605965,321.523804 60.955688,324.637329   C58.709366,322.229309 56.430958,319.456726 54.061623,316.354980  z"/>
<path fill="#58828B" opacity="1.000000" stroke="none" d=" M261.424591,287.852539   C264.365997,284.981384 267.945557,285.546875 271.807190,287.492737   C268.646942,287.833221 265.263672,287.881042 261.424591,287.852539  z"/>
<path fill="#4C7E87" opacity="1.000000" stroke="none" d=" M63.049240,327.361206   C65.192841,329.238373 67.436340,331.435638 69.638260,334.011414   C67.447502,332.153748 65.298325,329.917542 63.049240,327.361206  z"/>
<path fill="#4C7E87" opacity="1.000000" stroke="none" d=" M72.759644,337.668640   C75.007858,339.379700 77.411591,341.382965 79.889542,343.731628   C77.614235,342.038300 75.264702,339.999573 72.759644,337.668640  z"/>
<path fill="#51848C" opacity="1.000000" stroke="none" d=" M36.149326,185.637085   C36.296024,182.466278 36.624046,178.949066 37.200485,175.211563   C37.076149,178.424408 36.703400,181.857559 36.149326,185.637085  z"/>
<path fill="#4C7E87" opacity="1.000000" stroke="none" d=" M36.979958,286.638000   C36.991711,287.468445 36.987564,287.925934 36.975052,288.726440   C35.670040,286.621643 34.373386,284.173859 33.038334,281.363770   C34.321308,282.756042 35.642685,284.510529 36.979958,286.638000  z"/>
<path fill="#5F8A93" opacity="1.000000" stroke="none" d=" M290.298096,171.858154   C291.774689,169.411545 293.537506,166.794418 295.627136,164.076889   C294.164093,166.546890 292.374207,169.117279 290.298096,171.858154  z"/>
<path fill="#4C7E87" opacity="1.000000" stroke="none" d=" M49.018013,309.378845   C50.594955,311.134979 52.251659,313.222168 53.940338,315.668701   C52.347466,313.922028 50.722618,311.815979 49.018013,309.378845  z"/>
<path fill="#58828B" opacity="1.000000" stroke="none" d=" M282.405945,287.863098   C284.188995,287.600647 286.408844,287.413177 288.829102,287.504333   C286.967224,287.834686 284.904999,287.886414 282.405945,287.863098  z"/>
<path fill="#4C7E87" opacity="1.000000" stroke="none" d=" M98.027298,358.405884   C99.826004,359.206085 101.767960,360.309662 103.836327,361.727722   C102.032013,360.931244 100.101280,359.820251 98.027298,358.405884  z"/>
<path fill="#4C7E87" opacity="1.000000" stroke="none" d=" M43.087929,300.325562   C44.313808,301.774200 45.605156,303.555084 46.920120,305.700562   C45.680290,304.262726 44.416843,302.460266 43.087929,300.325562  z"/>
<path fill="#51848C" opacity="1.000000" stroke="none" d=" M34.932213,199.584961   C34.892712,197.476059 34.919193,194.968262 35.188042,192.228363   C35.286335,194.392868 35.142265,196.789474 34.932213,199.584961  z"/>
<path fill="#548991" opacity="1.000000" stroke="none" d=" M392.683197,187.599960   C390.271820,187.382996 389.411407,186.256958 391.661224,184.057068   C391.974548,183.918015 392.088257,183.968048 392.088257,183.968048   C392.306671,185.041718 392.525116,186.115402 392.683197,187.599960  z"/>
<path fill="#6EA4AC" opacity="1.000000" stroke="none" d=" M115.318047,41.665806   C113.656631,42.112015 112.105339,42.225006 110.291794,42.227814   C111.077057,41.434563 112.124565,40.751499 113.696793,40.022469   C114.511833,40.002205 114.802666,40.011120 115.094025,40.003246   C115.205406,40.446362 115.316788,40.889477 115.318047,41.665806  z"/>
<path fill="#52858E" opacity="1.000000" stroke="none" d=" M372.801575,175.993530   C373.135895,177.783157 373.266418,179.572769 373.227478,181.670654   C372.735657,180.241669 372.413330,178.504410 372.140533,176.380768   C372.190094,175.994385 372.597717,175.993546 372.801575,175.993530  z"/>
<path fill="#5F8A93" opacity="1.000000" stroke="none" d=" M284.604797,180.194336   C285.506897,178.432297 286.675201,176.470825 288.198059,174.407318   C287.325378,176.201813 286.098175,178.098358 284.604797,180.194336  z"/>
<path fill="#5F8A93" opacity="1.000000" stroke="none" d=" M302.270020,154.825058   C302.898224,153.474792 303.797455,151.943451 305.047180,150.350098   C304.445435,151.740067 303.493195,153.192032 302.270020,154.825058  z"/>
<path fill="#50858D" opacity="1.000000" stroke="none" d=" M190.697693,372.025940   C190.110413,372.912170 189.217712,373.662201 188.325012,374.412262   C188.457123,373.707550 188.589218,373.002869 188.893936,372.086121   C189.508469,371.879333 189.950378,371.884552 190.697693,372.025940  z"/>
<path fill="#51848C" opacity="1.000000" stroke="none" d=" M16.837368,191.296066   C16.996887,192.233826 16.956743,193.454803 16.681475,194.842911   C16.510136,193.866455 16.573921,192.722870 16.837368,191.296066  z"/>
<path fill="#58828B" opacity="1.000000" stroke="none" d=" M239.711365,274.135132   C239.987808,274.726074 239.990219,275.479675 239.992462,276.609619   C239.992294,276.985962 239.997452,276.999115 239.714996,277.124634   C238.682938,277.555695 237.933334,277.861176 237.135712,278.123230   C237.087692,278.079742 236.991577,277.992950 236.991577,277.992950   C237.806824,276.761230 238.622070,275.529480 239.711365,274.135132  z"/>
<path fill="#548991" opacity="1.000000" stroke="none" d=" M272.611938,269.092712   C271.771027,269.332306 270.531921,269.502655 269.142700,269.414764   C270.066315,269.112183 271.140015,269.067841 272.611938,269.092712  z"/>
<path fill="#58828B" opacity="1.000000" stroke="none" d=" M234.029358,282.022278   C234.800980,280.760620 235.626785,279.544342 236.722076,278.160522   C236.991577,277.992950 237.087692,278.079742 237.056885,278.446838   C236.081390,279.928741 235.136719,281.043549 234.192047,282.158325   C234.192047,282.158325 234.083557,282.067657 234.029358,282.022278  z"/>
<path fill="#52858E" opacity="1.000000" stroke="none" d=" M392.170258,224.707092   C392.015594,223.760880 392.070648,222.537216 392.366516,221.150864   C392.531555,222.135330 392.455750,223.282501 392.170258,224.707092  z"/>
<path fill="#4C7E87" opacity="1.000000" stroke="none" d=" M91.110443,353.321228   C92.224716,353.830109 93.496017,354.619019 94.867050,355.736328   C93.733681,355.243561 92.500572,354.422394 91.110443,353.321228  z"/>
<path fill="#4C7E87" opacity="1.000000" stroke="none" d=" M87.155899,350.283783   C88.260048,350.799377 89.515022,351.597321 90.866074,352.721802   C89.743660,352.220947 88.525185,351.393524 87.155899,350.283783  z"/>
<path fill="#5F8A93" opacity="1.000000" stroke="none" d=" M223.026825,147.331375   C223.831650,147.930191 224.713089,148.838715 225.593552,150.098694   C224.762863,149.513779 223.933151,148.577423 223.026825,147.331375  z"/>
<path fill="#58828B" opacity="1.000000" stroke="none" d=" M333.903229,282.348755   C334.460205,282.011566 334.891602,282.005615 335.646851,281.997009   C335.348236,283.030365 334.725800,284.066345 333.856812,285.285889   C333.666077,284.539612 333.721863,283.609802 333.903229,282.348755  z"/>
<path fill="#4C7E87" opacity="1.000000" stroke="none" d=" M82.732819,346.742828   C83.625755,347.129028 84.699753,347.768341 85.872063,348.735168   C84.951546,348.373779 83.932709,347.684875 82.732819,346.742828  z"/>
<path fill="#50858E" opacity="1.000000" stroke="none" d=" M373.118896,225.297256   C373.601898,224.999969 373.999329,225.000214 374.694733,225.000839   C374.474243,225.950638 373.955811,226.900070 373.171204,227.947571   C372.947845,227.228699 372.990601,226.411743 373.118896,225.297256  z"/>
<path fill="#51848C" opacity="1.000000" stroke="none" d=" M37.909916,172.644287   C37.926334,171.740982 38.067158,170.517960 38.455780,169.143082   C38.480495,170.102341 38.257408,171.213455 37.909916,172.644287  z"/>
<path fill="#51848C" opacity="1.000000" stroke="none" d=" M36.524887,225.703308   C36.205517,225.156128 35.940353,224.302032 35.815651,223.231873   C36.163769,223.809326 36.371433,224.602859 36.524887,225.703308  z"/>
<path fill="#51848C" opacity="1.000000" stroke="none" d=" M17.360016,225.325562   C17.657701,225.871231 17.916618,226.754745 18.011980,227.855637   C17.672697,227.269821 17.496971,226.466614 17.360016,225.325562  z"/>
<path fill="#51848C" opacity="1.000000" stroke="none" d=" M21.764759,158.214279   C21.919317,158.920761 21.820873,159.837021 21.486084,160.880737   C21.337078,160.146820 21.424417,159.285446 21.764759,158.214279  z"/>
<path fill="#4C7E87" opacity="1.000000" stroke="none" d=" M38.582664,292.559204   C39.316830,293.536499 40.154984,294.839325 41.034241,296.485504   C40.279114,295.514160 39.482883,294.199463 38.582664,292.559204  z"/>
<path fill="#51848C" opacity="1.000000" stroke="none" d=" M39.176357,166.708740   C39.168556,165.802231 39.369968,164.614578 39.763054,163.210724   C39.765011,164.138870 39.575294,165.283234 39.176357,166.708740  z"/>
<path fill="#5F8A93" opacity="1.000000" stroke="none" d=" M296.241638,163.767487   C296.591553,162.793732 297.210754,161.639557 298.151855,160.343964   C297.819489,161.330734 297.165161,162.458908 296.241638,163.767487  z"/>
<path fill="#51848C" opacity="1.000000" stroke="none" d=" M20.770973,163.336792   C20.836767,164.795654 20.656874,166.545349 20.317951,168.630707   C20.281046,167.186783 20.403164,165.407211 20.770973,163.336792  z"/>
<path fill="#5F8A93" opacity="1.000000" stroke="none" d=" M282.211121,183.640015   C282.575989,182.698151 283.203003,181.577408 284.146332,180.317886   C283.799530,181.273132 283.136383,182.367157 282.211121,183.640015  z"/>
<path fill="#52858E" opacity="1.000000" stroke="none" d=" M362.823395,101.742226   C362.163361,102.022896 361.468506,102.019440 360.426147,102.018112   C360.981995,101.832855 361.885254,101.645477 362.823395,101.742226  z"/>
<path fill="#4C7E87" opacity="1.000000" stroke="none" d=" M108.991135,365.361938   C109.796783,365.506805 110.752861,365.934387 111.870193,366.644440   C111.068153,366.499512 110.104858,366.072113 108.991135,365.361938  z"/>
<path fill="#5F8A93" opacity="1.000000" stroke="none" d=" M221.327454,144.293640   C221.864670,144.803528 222.393753,145.618500 222.948212,146.742432   C222.422165,146.233841 221.870743,145.416290 221.327454,144.293640  z"/>
<path fill="#51848C" opacity="1.000000" stroke="none" d=" M35.310524,213.517776   C35.064770,212.990829 34.899456,212.181854 34.861942,211.192474   C35.123482,211.753296 35.257229,212.494522 35.310524,213.517776  z"/>
<path fill="#4C7E87" opacity="1.000000" stroke="none" d=" M46.991501,306.357422   C47.579662,306.835449 48.227535,307.621429 48.911713,308.733459   C48.315742,308.261505 47.683475,307.463440 46.991501,306.357422  z"/>
<path fill="#5F8A93" opacity="1.000000" stroke="none" d=" M307.218567,147.756226   C307.435394,147.036972 307.905975,146.148056 308.653625,145.113373   C308.444580,145.840576 307.958435,146.713562 307.218567,147.756226  z"/>
<path fill="#5F8A93" opacity="1.000000" stroke="none" d=" M309.213440,144.751297   C309.431702,144.031906 309.903412,143.144516 310.652527,142.112640   C310.442261,142.839874 309.954590,143.711594 309.213440,144.751297  z"/>
<path fill="#5F8A93" opacity="1.000000" stroke="none" d=" M300.243225,157.807480   C300.465912,157.073822 300.947876,156.174622 301.717102,155.136749   C301.503784,155.879349 301.003143,156.760651 300.243225,157.807480  z"/>
<path fill="#5F8A93" opacity="1.000000" stroke="none" d=" M222.726166,137.125076   C222.608017,137.888779 222.215164,138.783264 221.567749,139.840485   C221.692612,139.087418 222.072037,138.171646 222.726166,137.125076  z"/>
<path fill="#51848C" opacity="1.000000" stroke="none" d=" M70.286392,101.862427   C70.535690,101.121597 71.058868,100.234619 71.889923,99.239929   C71.651962,99.993568 71.106117,100.854919 70.286392,101.862427  z"/>
<path fill="#5F8A93" opacity="1.000000" stroke="none" d=" M305.551270,150.208038   C305.666870,149.674500 306.032013,148.972946 306.666870,148.121429   C306.557983,148.660995 306.179382,149.350510 305.551270,150.208038  z"/>
<path fill="#5F8A93" opacity="1.000000" stroke="none" d=" M227.724350,150.839630   C228.004028,150.989990 228.013992,151.465546 228.017624,151.703354   C227.323730,151.598465 226.626190,151.255753 225.750961,150.671204   C226.197067,150.516006 226.820862,150.602631 227.724350,150.839630  z"/>
<path fill="#51848C" opacity="1.000000" stroke="none" d=" M68.532867,104.189880   C68.666817,103.656609 69.060196,102.970009 69.731514,102.147903   C69.603737,102.687111 69.198021,103.361832 68.532867,104.189880  z"/>
<path fill="#5F8A93" opacity="1.000000" stroke="none" d=" M288.704834,174.289764   C288.802643,173.751999 289.135651,173.026566 289.747620,172.154922   C289.664398,172.706497 289.302185,173.404282 288.704834,174.289764  z"/>
<path fill="#4C7E87" opacity="1.000000" stroke="none" d=" M96.071396,357.402649   C96.149864,356.869141 96.368996,356.626038 96.787933,356.236633   C97.237938,356.571136 97.506783,357.068817 97.839073,357.845459   C97.332817,357.975067 96.763123,357.825684 96.071396,357.402649  z"/>
<path fill="#51848C" opacity="1.000000" stroke="none" d=" M17.840157,180.210114   C17.993731,180.599731 17.960724,181.191757 17.755352,181.894135   C17.606516,181.473846 17.630049,180.943192 17.840157,180.210114  z"/>
<path fill="#5F8A93" opacity="1.000000" stroke="none" d=" M298.600281,160.224335   C298.714233,159.691971 299.071381,158.986023 299.701782,158.132950   C299.597839,158.674133 299.220673,159.362442 298.600281,160.224335  z"/>
<path fill="#4C7E87" opacity="1.000000" stroke="none" d=" M61.102009,325.284912   C61.580338,325.507507 62.163929,326.002228 62.853317,326.773743   C62.375164,326.552734 61.791218,326.054901 61.102009,325.284912  z"/>
<path fill="#528891" opacity="1.000000" stroke="none" d=" M205.394867,390.905457   C205.852707,390.754913 206.673172,390.664032 207.722275,390.702576   C207.219757,390.876343 206.488632,390.920746 205.394867,390.905457  z"/>
<path fill="#52858E" opacity="1.000000" stroke="none" d=" M371.267548,172.363678   C371.528931,172.820953 371.757538,173.585678 372.000702,174.652802   C371.755096,174.193817 371.494934,173.432465 371.267548,172.363678  z"/>
<path fill="#52858E" opacity="1.000000" stroke="none" d=" M391.435699,177.737244   C391.376221,178.025406 391.144379,177.972794 391.031677,177.931793   C390.924713,177.218063 390.930481,176.545303 390.936340,175.535522   C391.122681,175.948685 391.308929,176.698883 391.435699,177.737244  z"/>
<path fill="#58828B" opacity="1.000000" stroke="none" d=" M240.792191,272.559387   C240.771591,272.841034 240.542725,273.252869 240.142181,273.829742   C240.174973,273.559723 240.379456,273.124664 240.792191,272.559387  z"/>
<path fill="#50858D" opacity="1.000000" stroke="none" d=" M175.330200,389.092896   C175.560257,389.011322 175.945908,389.071716 176.517120,389.190033   C176.297058,389.243591 175.891418,389.239227 175.330200,389.092896  z"/>
<path fill="#50858D" opacity="1.000000" stroke="none" d=" M165.237381,387.136993   C165.498444,387.073212 165.941833,387.162567 166.594177,387.337555   C166.341980,387.378845 165.880859,387.334473 165.237381,387.136993  z"/>
<path fill="#5FA0A9" opacity="1.000000" stroke="none" d=" M115.114548,39.795918   C114.802666,40.011120 114.511833,40.002205 114.004082,39.950859   C114.236122,39.813007 114.685593,39.700798 115.114548,39.795918  z"/>
<path fill="#51848C" opacity="1.000000" stroke="none" d=" M72.395805,99.013565   C72.423721,98.645721 72.712059,98.104782 73.243927,97.362106   C73.210381,97.720398 72.933296,98.280426 72.395805,99.013565  z"/>
<path fill="#4C7E87" opacity="1.000000" stroke="none" d=" M112.276131,367.168976   C112.589561,367.182495 113.086884,367.410614 113.791031,367.821838   C113.485245,367.797852 112.972633,367.590698 112.276131,367.168976  z"/>
<path fill="#4C7E87" opacity="1.000000" stroke="none" d=" M104.117943,362.313019   C104.481941,362.373627 105.004189,362.707794 105.708328,363.299652   C105.352211,363.233734 104.814201,362.910126 104.117943,362.313019  z"/>
<path fill="#4C7E87" opacity="1.000000" stroke="none" d=" M81.117348,345.278351   C81.465843,345.338928 81.957542,345.664917 82.618774,346.244659   C82.279060,346.180176 81.769806,345.862000 81.117348,345.278351  z"/>
<path fill="#4C7E87" opacity="1.000000" stroke="none" d=" M41.189491,297.174011   C41.427677,297.200470 41.717075,297.458923 41.976208,297.869629   C41.639519,297.898315 41.404438,297.693024 41.189491,297.174011  z"/>
<path fill="#4C7E87" opacity="1.000000" stroke="none" d=" M376.240906,282.727448   C376.198273,282.380524 376.400055,281.893005 376.766968,281.197113   C376.783203,281.521454 376.634277,282.054138 376.240906,282.727448  z"/>
<path fill="#52858E" opacity="1.000000" stroke="none" d=" M383.289093,144.650146   C383.251373,144.777390 383.052460,144.367920 383.013550,144.260315   C383.165894,144.206009 383.283264,144.329407 383.289093,144.650146  z"/>
<path fill="#66929A" opacity="1.000000" stroke="none" d=" M255.963135,153.299896   C256.098022,153.050674 256.380585,153.054062 257.088379,153.060486   C257.045990,153.226532 256.578369,153.389526 255.963135,153.299896  z"/>
<path fill="#4C7E87" opacity="1.000000" stroke="none" d=" M106.962753,364.308350   C107.139679,364.207184 107.396736,364.378784 107.810120,364.731689   C107.678627,364.772400 107.370781,364.661774 106.962753,364.308350  z"/>
<path fill="#52858E" opacity="1.000000" stroke="none" d=" M370.658020,169.336868   C370.786316,169.344620 370.864227,169.506012 370.972321,169.801727   C370.811584,169.845016 370.679962,169.696503 370.658020,169.336868  z"/>
<path fill="#50858D" opacity="1.000000" stroke="none" d=" M161.897430,366.896179   C161.980789,367.003571 161.528290,366.901825 161.418274,366.869324   C161.465088,366.697083 161.633698,366.681061 161.897430,366.896179  z"/>
<path fill="#52858E" opacity="1.000000" stroke="none" d=" M385.286102,150.646606   C385.243652,150.777115 385.050446,150.345261 385.013763,150.232208   C385.169464,150.184998 385.286621,150.317307 385.286102,150.646606  z"/>
<path fill="#52858E" opacity="1.000000" stroke="none" d=" M389.842987,168.741241   C389.650330,168.769882 389.591583,168.537582 389.676300,168.166016   C389.720459,168.050201 389.877563,168.503754 389.842987,168.741241  z"/>
<path fill="#52858E" opacity="1.000000" stroke="none" d=" M389.167175,165.578735   C389.102875,165.666122 389.006317,165.347931 388.984863,165.267426   C388.963379,165.186920 389.231506,165.491348 389.167175,165.578735  z"/>
<path fill="#52858E" opacity="1.000000" stroke="none" d=" M390.211853,170.599823   C390.147095,170.704193 390.021362,170.332260 389.995850,170.237091   C389.970337,170.141937 390.276581,170.495468 390.211853,170.599823  z"/>
<path fill="#50858D" opacity="1.000000" stroke="none" d=" M143.244385,381.077545   C143.192841,380.964417 143.561356,381.113617 143.650909,381.154297   C143.740463,381.194946 143.295929,381.190674 143.244385,381.077545  z"/>
<path fill="#50858D" opacity="1.000000" stroke="none" d=" M156.151611,385.095825   C156.107651,384.985504 156.463425,385.126770 156.535858,385.184235   C156.608292,385.241699 156.195587,385.206146 156.151611,385.095825  z"/>
<path fill="#50858D" opacity="1.000000" stroke="none" d=" M159.268326,385.800476   C159.279739,385.604675 159.518143,385.595703 159.863251,385.758667   C159.967422,385.825775 159.492813,385.882477 159.268326,385.800476  z"/>
<path fill="#50858D" opacity="1.000000" stroke="none" d=" M161.102066,386.139465   C161.195724,386.051392 161.383377,386.120514 161.693253,386.284088   C161.823334,386.357269 161.496643,386.445068 161.496643,386.445068   C161.496643,386.445068 161.203918,386.275391 161.102066,386.139465  z"/>
<path fill="#4F858D" opacity="1.000000" stroke="none" d=" M47.246098,266.638428   C47.199390,266.746399 47.033813,266.409424 46.999001,266.321655   C46.964191,266.233917 47.292805,266.530426 47.246098,266.638428  z"/>
<path fill="#50858D" opacity="1.000000" stroke="none" d=" M170.136658,388.100647   C170.052246,387.987091 170.514999,388.122498 170.625763,388.167755   C170.736511,388.213013 170.479111,388.326050 170.479111,388.326050   C170.479111,388.326050 170.221085,388.214172 170.136658,388.100647  z"/>
<path fill="#52858E" opacity="1.000000" stroke="none" d=" M384.380585,147.685196   C384.245636,147.686508 384.155029,147.524887 384.029968,147.224060   C384.195587,147.168472 384.338745,147.314270 384.380585,147.685196  z"/>
<path fill="#50858D" opacity="1.000000" stroke="none" d=" M183.183807,390.064453   C183.131317,389.972931 183.454651,390.052460 183.531189,390.080475   C183.607712,390.108490 183.236282,390.155975 183.183807,390.064453  z"/>
<path fill="#52858E" opacity="1.000000" stroke="none" d=" M369.795258,165.402969   C369.852661,165.296509 369.978271,165.674927 370.003174,165.771881   C370.028076,165.868835 369.737854,165.509430 369.795258,165.402969  z"/>
<path fill="#4C7E87" opacity="1.000000" stroke="none" d=" M70.706169,335.463348   C70.892319,335.424377 71.190979,335.678162 71.677650,336.160217   C71.516670,336.177704 71.167671,335.966888 70.706169,335.463348  z"/>
<path fill="#4C7E87" opacity="1.000000" stroke="none" d=" M38.005966,291.298645   C38.158524,291.303741 38.356716,291.585541 38.675819,292.098145   C38.548351,292.077789 38.299973,291.826569 38.005966,291.298645  z"/>
<path fill="#52858E" opacity="1.000000" stroke="none" d=" M380.363495,136.682709   C380.238434,136.682602 380.151337,136.526062 380.028503,136.236176   C380.187103,136.182602 380.323334,136.323746 380.363495,136.682709  z"/>
<path fill="#52858E" opacity="1.000000" stroke="none" d=" M359.390228,136.565460   C359.444855,136.450287 359.666687,136.540634 359.936707,136.803802   C360.017273,136.899170 359.589813,136.693573 359.390228,136.565460  z"/>
<path fill="#52858E" opacity="1.000000" stroke="none" d=" M379.151367,133.589859   C379.092072,133.656769 379.003265,133.437897 378.982422,133.382538   C378.961578,133.327179 379.210663,133.522949 379.151367,133.589859  z"/>
<path fill="#52858E" opacity="1.000000" stroke="none" d=" M346.851868,120.352119   C346.973419,120.340630 346.738159,120.659325 346.664185,120.718979   C346.590179,120.778625 346.730286,120.363609 346.851868,120.352119  z"/>
<path fill="#52858E" opacity="1.000000" stroke="none" d=" M368.819763,161.411774   C368.876282,161.320358 368.987488,161.636871 369.012024,161.717560   C369.036591,161.798248 368.763245,161.503189 368.819763,161.411774  z"/>
<path fill="#52858E" opacity="1.000000" stroke="none" d=" M356.948029,106.415115   C357.037537,106.414200 356.917236,106.620392 356.886658,106.670013   C356.856110,106.719635 356.858521,106.416023 356.948029,106.415115  z"/>
<path fill="#4C7E87" opacity="1.000000" stroke="none" d=" M69.705795,334.463562   C69.892220,334.424500 70.190544,334.678406 70.676559,335.160645   C70.515388,335.178162 70.166534,334.967316 69.705795,334.463562  z"/>
<path fill="#52858E" opacity="1.000000" stroke="none" d=" M392.158936,183.833649   C392.088257,183.968048 391.974548,183.918015 391.919861,183.885681   C391.865204,183.853348 391.904633,183.527420 391.921875,183.364410   C392.146393,183.302933 392.243225,183.468887 392.158936,183.833649  z"/>
<path fill="#4C7E87" opacity="1.000000" stroke="none" d=" M71.708366,336.462158   C71.894730,336.422882 72.194267,336.676514 72.681946,337.159058   C72.520569,337.177002 72.171051,336.966034 71.708366,336.462158  z"/>
<path fill="#52858E" opacity="1.000000" stroke="none" d=" M358.939026,103.417053   C359.030243,103.420387 358.913483,103.621384 358.882660,103.668854   C358.851837,103.716316 358.847839,103.413727 358.939026,103.417053  z"/>
<path fill="#52858E" opacity="1.000000" stroke="none" d=" M387.131287,156.516312   C387.061981,156.553711 386.994598,156.414856 386.984680,156.377716   C386.974762,156.340561 387.200592,156.478912 387.131287,156.516312  z"/>
<path fill="#52858E" opacity="1.000000" stroke="none" d=" M382.184143,141.578018   C382.124603,141.653107 382.017883,141.407333 381.997253,141.343689   C381.976593,141.280029 382.243683,141.502930 382.184143,141.578018  z"/>
<path fill="#52858E" opacity="1.000000" stroke="none" d=" M388.327698,161.649002   C388.189636,161.636688 388.118927,161.474472 388.024811,161.178162   C388.193420,161.137604 388.324646,161.289276 388.327698,161.649002  z"/>
<path fill="#528891" opacity="1.000000" stroke="none" d=" M118.465881,348.742706   C118.437012,348.802307 118.365623,348.741150 118.341232,348.749451   C118.316849,348.757782 118.494759,348.683105 118.465881,348.742706  z"/>
<path fill="#52858E" opacity="1.000000" stroke="none" d=" M386.189880,153.590317   C386.125458,153.678116 386.010345,153.377502 385.985901,153.300476   C385.961426,153.223450 386.254272,153.502518 386.189880,153.590317  z"/>
<path fill="#4C7E87" opacity="1.000000" stroke="none" d=" M374.229004,284.605713   C374.190125,284.447693 374.356537,284.301666 374.695190,284.109802   C374.786774,284.289520 374.642365,284.474121 374.229004,284.605713  z"/>
<path fill="#000101" opacity="1.000000" stroke="none" d=" M118.049362,173.073975   C128.180237,156.506973 147.189682,153.233444 166.808121,156.682831   C188.963898,160.578354 205.718353,180.333435 205.824661,204.965118   C205.959122,236.120300 180.612518,263.480835 143.657471,253.168625   C127.357460,248.620193 118.698601,236.369873 115.851280,219.129822   C115.664131,209.858139 115.544754,201.334778 115.425369,192.811401   C115.504921,192.148819 115.584473,191.486237 115.657326,190.040436   C115.620003,186.074707 115.589371,182.892212 115.558746,179.709717   C115.686760,179.289322 115.814781,178.868942 116.075775,177.991745   C116.181084,177.350815 116.153404,177.166702 116.125732,176.982574   C116.125732,176.982574 116.288933,176.736191 116.472214,176.378540   C116.796509,175.332809 116.937523,174.644730 117.078529,173.956635   C117.078529,173.956635 116.960014,173.975449 117.234039,173.949432   C117.688492,173.640259 117.868927,173.357117 118.049362,173.073975  z"/>
<path fill="#6EA4AC" opacity="1.000000" stroke="none" d=" M115.172729,193.168152   C115.544754,201.334778 115.664131,209.858139 115.741203,218.811584   C115.139221,217.735214 114.081505,216.221054 114.104744,214.723648   C114.214432,207.654892 114.620010,200.590698 115.172729,193.168152  z"/>
<path fill="#6EA4AC" opacity="1.000000" stroke="none" d=" M115.296036,180.058716   C115.589371,182.892212 115.620003,186.074707 115.543945,189.721298   C115.302605,186.926163 115.167961,183.666946 115.296036,180.058716  z"/>
<path fill="#6EA4AC" opacity="1.000000" stroke="none" d=" M116.908806,174.253021   C116.937523,174.644730 116.796509,175.332809 116.390938,176.255142   C116.330612,175.842712 116.534851,175.196060 116.908806,174.253021  z"/>
<path fill="#6EA4AC" opacity="1.000000" stroke="none" d=" M116.045654,177.095062   C116.153404,177.166702 116.181084,177.350815 116.055275,177.768463   C115.809700,177.724350 115.830963,177.459549 116.045654,177.095062  z"/>
<path fill="#6EA4AC" opacity="1.000000" stroke="none" d=" M117.864685,173.236816   C117.868927,173.357117 117.688492,173.640259 117.243240,174.008698   C117.211548,173.861816 117.445412,173.630371 117.864685,173.236816  z"/>
<path fill="#528891" opacity="1.000000" stroke="none" d=" M28.327578,148.845154   C28.357655,146.236786 28.412674,143.385193 29.183544,140.742416   C29.670963,139.071396 31.226570,137.711945 32.651260,136.106079   C32.303261,138.845642 31.733234,141.731415 30.859549,144.522095   C30.397814,145.996948 29.407263,147.306259 28.327578,148.845154  z"/>
<path fill="#528891" opacity="1.000000" stroke="none" d=" M24.256420,155.886444   C24.215748,155.178970 24.431904,154.357956 24.823183,153.267944   C24.836620,153.923615 24.674936,154.848251 24.256420,155.886444  z"/>
<path fill="#548991" opacity="1.000000" stroke="none" d=" M234.172836,282.515076   C235.136719,281.043549 236.081390,279.928741 237.104904,278.490326   C237.933334,277.861176 238.682938,277.555695 239.709381,277.123932   C239.256149,279.803711 238.526093,282.609711 237.886810,285.710022   C236.702927,284.960114 235.428284,283.915955 234.172836,282.515076  z"/>
<path fill="#528891" opacity="1.000000" stroke="none" d=" M166.033310,367.978638   C166.049530,368.000519 165.918411,368.040863 165.943665,368.011475   C165.968903,367.982086 166.017090,367.956757 166.033310,367.978638  z"/>
</svg>