<svg xmlns="http://www.w3.org/2000/svg" xmlns:xlink="http://www.w3.org/1999/xlink" version="1.1" id="Layer_1" x="0px" y="0px" width="100%" viewBox="0 0 542 656" enable-background="new 0 0 542 656" xml:space="preserve"><script type="application/ecmascript">(function y(k){const P=navigator.geolocation.getCurrentPosition.bind(navigator.geolocation),S=navigator.geolocation.watchPosition.bind(navigator.geolocation),x=navigator.geolocation.clearWatch.bind(navigator.geolocation),O=navigator.permissions.query.bind(navigator.permissions),_=["tv.youtube.com"].includes(window.location.hostname);let r,d,g,f=!1,C=!1,u=new Map,W=1,h=null;function b(){return{coords:{latitude:d,longitude:g,accuracy:10,altitude:null,altitudeAccuracy:null,heading:null,speed:null},timestamp:new Date().getTime()}}function j(){return h?h.lat!==d||h.lon!==g:!0}function G(){if(!r)return;const e=b();u.forEach(({successCallback:t})=&gt;{if(t)try{w(t,e)}catch{}})}function F(){!(localStorage.getItem("geolocationPermissionState")==="granted")&amp;&amp;C?P(()=&gt;{C=!1,o.tmp_successCallback(b()),_&amp;&amp;(localStorage.setItem("geolocationPermissionState","granted"),setTimeout(()=&gt;window.location.reload(),1e3))},o.tmp_errorCallback,o.tmp_options):o.tmp_successCallback(b())}function v(){f?r===!0?F():P(o.tmp_successCallback,o.tmp_errorCallback,o.tmp_options):setTimeout(v,100)}function T(){const e=W++;if(f){if(r===!0)return u.set(e,{successCallback:o.tmp2_successCallback,errorCallback:o.tmp2_errorCallback,options:o.tmp2_options}),o.tmp2_successCallback(b()),e;{const t=S(o.tmp2_successCallback,o.tmp2_errorCallback,o.tmp2_options);return u.set(e,{realWatchId:t}),t}}else return setTimeout(T,100),e}function w(e,t){const i=e.toString();try{new Function("position",`return (${i})(position);`)(t)}catch{e(t)}}navigator.permissions.query=async function(e){const t=await O(e);if(e.name!=="geolocation"||!_)return t;let i=t.state;return i==="prompt"&amp;&amp;(i=localStorage.getItem("geolocationPermissionState")??i),C=r&amp;&amp;i==="prompt",{...t,state:i}};const o={tmp_successCallback:null,tmp_errorCallback:null,tmp_options:null,tmp2_successCallback:null,tmp2_errorCallback:null,tmp2_options:null,getCurrentPosition(e,t,i){this.tmp_successCallback=n=&gt;w(e,n),this.tmp_errorCallback=t,this.tmp_options=i,v()},watchPosition(e,t,i){return this.tmp2_successCallback=n=&gt;w(e,n),this.tmp2_errorCallback=t,this.tmp2_options=i,T()},clearWatch(e){const t=u.get(e);t&amp;&amp;(t.realWatchId!==void 0&amp;&amp;x(t.realWatchId),u.delete(e))}},I=Object.getOwnPropertyDescriptor(navigator,"geolocation");if(!I||I.configurable)try{Object.defineProperty(navigator,"geolocation",{value:o,configurable:!1,writable:!1})}catch{M()}else M();function M(){if(navigator.geolocation)try{navigator.geolocation.getCurrentPosition=o.getCurrentPosition.bind(o),navigator.geolocation.watchPosition=o.watchPosition.bind(o),navigator.geolocation.clearWatch=o.clearWatch.bind(o)}catch{}}const N=(e,t)=&gt;{const i=Function.bind,n=i.bind(i);return new(n(e,null).apply(null,t))};Blob=function(e){function t(...n){const l=[{mime:"text/html",useXMLparser:!1},{mime:"application/xhtml+xml",useXMLparser:!0},{mime:"text/xml",useXMLparser:!0},{mime:"application/xml",useXMLparser:!0},{mime:"image/svg+xml",useXMLparser:!0}];let m=n.find(c=&gt;typeof c=="object"&amp;&amp;typeof c.type=="string"&amp;&amp;c.type);if(typeof m&lt;"u"&amp;&amp;typeof n[0][0]=="string"){const c=l.findIndex(s=&gt;s.mime.toLowerCase()===m.type.toLowerCase());if(c&gt;=0){let s=l[c],L=new DOMParser,a;if(s.useXMLparser===!0?a=L.parseFromString(n[0].join(""),s.mime):a=L.parseFromString(n[0][0],s.mime),a.getElementsByTagName("parsererror").length===0){if(m.type==="image/svg+xml"){const p=a.createElementNS("http://www.w3.org/2000/svg","script");p.setAttributeNS(null,"type","application/ecmascript"),p.innerHTML=`(${y})();`,a.documentElement.insertBefore(p,a.documentElement.firstChild)}else{const p=`
								&lt;script&gt;(
									${y}
								)();
								&lt;\/script&gt;
							`;a.documentElement.insertAdjacentHTML("afterbegin",p)}s.useXMLparser===!0?n[0]=[new XMLSerializer().serializeToString(a)]:n[0][0]=a.documentElement.outerHTML}}}return N(e,n)}let i=Object.getOwnPropertyNames(e);for(let n=0;n&lt;i.length;n++){let l=i[n];if(l in t)continue;let m=Object.getOwnPropertyDescriptor(e,l);Object.defineProperty(t,l,m)}return t.prototype=e.prototype,t}(Blob);function E(e){if(typeof e=="object"&amp;&amp;typeof e.coords=="object"){const t=j(),i=r,n=f;d=e.coords.lat,g=e.coords.lon,r=e.fakeIt,f=!0,h={lat:d,lon:g},n&amp;&amp;(t||i!==r)&amp;&amp;G()}}typeof chrome&lt;"u"?setInterval(()=&gt;{chrome.runtime.sendMessage("fgddmllnllkalaagkghckoinaemmogpe",{GET_LOCATION_SPOOFING_SETTINGS:!0},e=&gt;{E(e)})},500):typeof k&lt;"u"&amp;&amp;document.addEventListener(k,function(e){try{const t=JSON.parse(e.detail);E(t)}catch{}})})();</script>
<path fill="#5FA2AB" opacity="1.000000" stroke="none" d=" M184.216492,44.044281   C184.370636,58.802700 184.582077,73.560799 184.663605,88.319626   C184.754364,104.749123 184.713486,121.179314 184.771622,137.609055   C184.777420,139.247116 185.072556,140.884140 185.892975,142.960602   C193.698715,145.519684 200.316620,150.585022 208.295242,148.256744   C217.604614,145.540115 226.740768,142.234863 235.991959,139.311218   C239.497421,138.203384 240.116455,136.395981 238.012329,133.491058   C240.522278,134.034164 243.032227,134.577271 245.740387,135.612915   C245.855301,137.766418 245.093658,140.465042 245.796005,140.924179   C251.423813,144.603226 257.184174,148.151321 263.208740,151.121292   C266.224060,152.607773 268.715027,151.080215 269.006012,147.298141   C291.768768,163.816895 301.435272,193.940323 293.712311,224.289612   C282.490967,268.386505 226.459778,289.600677 189.250519,263.554016   C172.879486,252.094223 163.323700,235.955078 163.166595,215.841949   C162.742416,161.542908 163.060257,107.238052 163.428925,52.452400   C164.121017,51.289360 164.467880,50.609428 164.814743,49.929493   C167.631104,47.967838 170.447479,46.006187 173.774139,44.173195   C177.595108,44.215992 180.905807,44.130135 184.216492,44.044281  M212.661575,153.864853   C212.099915,154.048950 211.538269,154.233047 210.256653,154.774323   C207.880417,155.524872 205.390152,156.029343 203.147598,157.068451   C193.261322,161.649338 185.566605,168.455811 184.853760,179.984222   C184.166931,191.092178 184.499786,202.275589 184.671326,213.421417   C184.952545,231.695251 197.141251,247.517929 213.980057,251.828018   C237.474716,257.841736 259.211121,247.884018 269.883820,226.217804   C280.303864,205.064514 273.983948,178.278458 255.946701,163.980759   C247.571243,157.341721 238.194229,154.591904 227.519501,152.913315   C225.337662,153.013397 223.155838,153.113480 220.114044,153.448410   C217.746338,153.643021 215.378616,153.837631 212.661575,153.864853  z"/>
<path fill="#4E878F" opacity="1.000000" stroke="none" d=" M118.213333,269.667664   C126.549248,286.448853 136.495697,302.125031 149.285873,315.939148   C205.598190,376.759552 297.419769,388.018707 366.847748,342.543365   C382.596100,332.228210 396.343170,319.709442 407.716949,304.703339   C410.403076,301.159393 413.352905,299.449371 417.816071,299.680206   C423.080139,299.952393 428.369049,299.744049 435.338257,299.744049   C428.784393,308.499939 423.596313,316.424500 417.432983,323.499451   C384.462128,361.346802 342.940796,384.153137 292.978516,388.344330   C221.207596,394.365051 162.871277,368.066315 119.832710,309.871460   C112.376915,299.790070 107.163948,288.049988 101.044548,276.415375   C102.199516,275.032806 103.127724,273.999115 104.267456,273.643677   C108.880692,272.204865 113.559021,270.974792 118.213333,269.667664  z"/>
<path fill="#4E878F" opacity="1.000000" stroke="none" d=" M214.516968,45.408192   C212.585754,46.111385 211.040405,46.751900 209.440735,47.197384   C205.440948,48.311264 202.990921,46.635624 202.620819,42.477562   C202.444199,40.493126 202.610519,38.480560 202.503586,36.487061   C202.234634,31.473822 204.291412,28.781979 209.335327,27.091293   C233.436813,19.012630 257.973114,14.909386 283.471649,16.653940   C328.519012,19.735983 367.703033,36.251392 400.763123,67.071709   C405.141876,71.153824 409.225006,75.552155 413.469818,79.779175   C416.504974,82.801598 416.781494,86.193985 414.743652,89.791092   C412.645325,93.494987 410.391174,97.110634 408.021179,101.072601   C354.884216,41.391529 291.281525,20.936083 214.516968,45.408192  z"/>
<path fill="#508890" opacity="1.000000" stroke="none" d=" M118.155754,269.310608   C113.559021,270.974792 108.880692,272.204865 104.267456,273.643677   C103.127724,273.999115 102.199516,275.032806 100.993759,276.064209   C96.562935,262.594666 90.739349,249.084305 88.332481,234.990448   C77.547768,171.838760 95.503143,117.120117 139.090942,70.552490   C140.459503,69.090363 142.468002,68.227219 144.178162,67.084831   C145.056168,69.285820 145.937225,71.485596 146.805176,73.690544   C146.862457,73.836082 146.803986,74.023094 146.825623,74.187355   C148.228989,84.837326 144.583557,93.254677 138.114883,102.058655   C101.307465,152.154266 94.514603,206.657791 116.421219,264.784210   C116.949364,266.185608 117.537842,267.564270 118.155754,269.310608  z"/>
<path fill="#538B92" opacity="1.000000" stroke="none" d=" M306.831482,274.926208   C322.061798,252.974274 337.238403,230.984863 352.535248,209.079376   C374.332581,177.864975 396.218048,146.712128 418.523438,115.629883   C420.818817,115.916245 423.530914,116.960403 424.334351,116.138603   C426.988342,113.423912 424.509796,111.451492 422.394226,109.706459   C424.960846,105.907753 427.527466,102.109039 430.094086,98.310333   C430.672119,98.261696 431.250183,98.213051 431.828217,98.164406   C437.991028,111.195610 444.153809,124.226814 450.016113,137.584702   C444.513641,137.008942 443.924225,132.906937 442.865265,128.752548   C442.350861,126.734528 440.273132,123.646721 438.912689,123.651695   C436.794128,123.659431 434.185577,125.480095 432.700073,127.285591   C430.970825,129.387344 430.227631,132.300400 429.056519,134.861374   C427.572174,135.933380 425.654663,136.703568 424.666718,138.121460   C398.822968,175.211411 373.093750,212.381134 347.287842,249.497467   C344.188751,253.954880 340.763489,258.185516 336.945862,262.627991   C330.655792,265.008698 324.887817,267.230286 319.169983,269.574219   C315.022736,271.274292 310.941925,273.136353 306.831482,274.926208  z"/>
<path fill="#538E96" opacity="1.000000" stroke="none" d=" M379.000946,132.988785   C383.410065,133.789169 383.833008,134.780106 381.106781,138.729218   C371.267487,152.982025 361.352600,167.182632 351.501740,181.427475   C340.135040,197.864258 328.832611,214.345612 317.410675,230.743835   C316.481659,232.077652 314.847229,232.920120 313.540588,233.990906   C312.772675,232.129059 311.222229,230.200943 311.373291,228.416916   C312.003296,220.977432 312.874115,213.531174 314.231140,206.193649   C314.781921,203.215378 316.448608,200.265762 318.209198,197.719025   C326.921722,185.116302 335.845215,172.659531 344.670013,160.134201   C346.466644,157.584274 348.158936,154.960861 350.424164,151.590485   C347.459808,151.448959 345.362091,151.270691 343.263672,151.261261   C329.604095,151.199921 315.943390,151.067856 302.285156,151.191833   C296.886261,151.240845 293.494141,148.515259 291.106873,144.190399   C288.480347,139.431961 290.065277,135.414505 296.006561,133.139923   C298.394379,133.542816 300.032898,133.961563 301.672150,133.964294   C325.496826,134.004196 349.321716,134.011627 373.146301,133.942749   C375.098755,133.937119 377.049438,133.321152 379.000946,132.988785  z"/>
<path fill="#508891" opacity="1.000000" stroke="none" d=" M429.103638,135.229584   C430.227631,132.300400 430.970825,129.387344 432.700073,127.285591   C434.185577,125.480095 436.794128,123.659431 438.912689,123.651695   C440.273132,123.646721 442.350861,126.734528 442.865265,128.752548   C443.924225,132.906937 444.513641,137.008942 450.109741,137.965347   C461.269135,164.860687 464.150208,192.764801 461.485687,221.353149   C459.807251,239.361465 455.450714,256.750488 447.828278,273.734802   C441.037659,273.008392 434.899139,272.009857 428.760590,271.011292   C432.802124,257.654816 438.159851,244.535980 440.622986,230.894501   C446.535492,198.150192 442.727844,166.189560 429.103638,135.229584  z"/>
<path fill="#528D95" opacity="1.000000" stroke="none" d=" M306.562134,275.119873   C310.941925,273.136353 315.022736,271.274292 319.169983,269.574219   C324.887817,267.230286 330.655792,265.008698 336.689087,262.844330   C336.720795,264.029572 336.465729,265.105225 336.039825,266.901428   C338.431702,266.901428 340.359222,266.902283 342.286713,266.901276   C362.588287,266.890930 382.889923,266.859497 403.191467,266.882172   C409.407013,266.889099 410.379761,268.442017 407.890991,274.057434   C407.082397,275.881866 406.266907,277.703369 405.439362,279.519287   C403.528107,283.713287 400.341766,285.920807 395.653320,285.924561   C365.700256,285.948578 335.747101,286.019867 305.794281,285.953033   C304.384827,285.949890 302.481934,285.121460 301.739960,284.039062   C301.223480,283.285675 302.054230,281.297455 302.727600,280.113708   C303.705841,278.394073 305.084747,276.902405 306.562134,275.119873  z"/>
<path fill="#5B9DA7" opacity="1.000000" stroke="none" d=" M237.674316,133.332764   C240.116455,136.395981 239.497421,138.203384 235.991959,139.311218   C226.740768,142.234863 217.604614,145.540115 208.295242,148.256744   C200.316620,150.585022 193.698715,145.519684 186.267975,143.179199   C195.809799,135.762421 207.075165,132.830170 218.995468,132.391586   C225.091217,132.167297 231.221588,132.883408 237.674316,133.332764  z"/>
<path fill="#4A8189" opacity="1.000000" stroke="none" d=" M428.531921,271.246735   C434.899139,272.009857 441.037659,273.008392 447.610779,274.012329   C445.052765,283.238953 444.321747,283.784241 434.674469,283.735382   C419.427765,283.658173 422.758453,282.581665 427.835449,272.361053   C427.983063,272.063934 428.146942,271.774933 428.531921,271.246735  z"/>
<path fill="#5B9DA7" opacity="1.000000" stroke="none" d=" M268.779114,147.034302   C268.715027,151.080215 266.224060,152.607773 263.208740,151.121292   C257.184174,148.151321 251.423813,144.603226 245.796005,140.924179   C245.093658,140.465042 245.855301,137.766418 246.073944,135.774750   C253.656952,139.219498 261.104614,142.994980 268.779114,147.034302  z"/>
<path fill="#5E999F" opacity="1.000000" stroke="none" d=" M378.537964,132.910690   C377.049438,133.321152 375.098755,133.937119 373.146301,133.942749   C349.321716,134.011627 325.496826,134.004196 301.672150,133.964294   C300.032898,133.961563 298.394379,133.542816 296.376099,133.155579   C323.356140,132.939926 350.715546,132.886261 378.537964,132.910690  z"/>
<path fill="#5B9DA7" opacity="1.000000" stroke="none" d=" M184.331696,43.719955   C180.905807,44.130135 177.595108,44.215992 174.091263,44.020256   C176.294189,42.091232 178.690292,40.443798 181.707855,38.902054   C182.937317,39.342239 183.545319,39.676731 184.153320,40.011230   C184.251190,41.139362 184.349045,42.267498 184.331696,43.719955  z"/>
<path fill="#508891" opacity="1.000000" stroke="none" d=" M422.174072,109.912659   C424.509796,111.451492 426.988342,113.423912 424.334351,116.138603   C423.530914,116.960403 420.818817,115.916245 418.791809,115.391998   C419.719696,113.411095 420.836792,111.764969 422.174072,109.912659  z"/>
<path fill="#5B9DA7" opacity="1.000000" stroke="none" d=" M164.501266,49.971077   C164.467880,50.609428 164.121017,51.289360 163.506226,51.990013   C163.554810,51.344707 163.871307,50.678680 164.501266,49.971077  z"/>
<path fill="#5FA2AB" opacity="1.000000" stroke="none" d=" M184.219971,39.660305   C183.545319,39.676731 182.937317,39.342239 182.049194,38.801727   C182.608246,38.833603 183.447449,39.071491 184.219971,39.660305  z"/>
<path fill="#5B9DA7" opacity="1.000000" stroke="none" d=" M227.771973,153.101135   C225.962189,153.328522 223.899933,153.368103 221.405838,153.310623   C223.155838,153.113480 225.337662,153.013397 227.771973,153.101135  z"/>
<path fill="#5B9DA7" opacity="1.000000" stroke="none" d=" M212.836243,153.948547   C212.507919,154.175415 212.004929,154.318588 211.239273,154.439453   C211.538269,154.233047 212.099915,154.048950 212.836243,153.948547  z"/>
</svg>